<svg id="Layer_1" data-name="Layer 1" xmlns="http://www.w3.org/2000/svg" width="572.36" height="899.82" viewBox="0 0 572.36 899.82"><title>logo-black-icon</title><path d="M575.91,358.18a35.825,35.825,0,1,1-35.83-35.83A35.8279,35.8279,0,0,1,575.91,358.18Z" transform="translate(-253.82 -90.09)" fill="#444"/><path d="M805.91,959.71,619.37,681.76l-.02-.04,41.46-66.22L816.52,367.18l.09-.14v-.34C816.61,213.98,692.72,90.09,540,90.09c-152.73,0-276.45,123.89-276.45,276.61v.34l.09.14L434.03,622.33l31.91,47.78L364.15,823.57,253.82,989.9H408.6l30.86-47.12,101.8-155.46.1-.15L668.49,989.9H826.17ZM581.98,500.79q-1.17,1.965-2.31,3.96l-34.76,60.87-57.98-93.63L421.91,367.04v-.34a118.17,118.17,0,1,1,236.34,0v.34L600.75,467.9l-18.76,32.87C581.98,500.77,581.98,500.78,581.98,500.79Z" transform="translate(-253.82 -90.09)" fill="#444"/><path d="M575.91,358.18a35.825,35.825,0,1,1-35.83-35.83A35.8279,35.8279,0,0,1,575.91,358.18Z" transform="translate(-253.82 -90.09)" fill="#fff"/><path d="M581.98,500.79l-37.03,64.89-.04-.06,34.76-60.87Q580.81,502.755,581.98,500.79Z" transform="translate(-253.82 -90.09)" fill="#fff"/><path d="M575.91,358.18a35.825,35.825,0,1,1-35.83-35.83A35.8279,35.8279,0,0,1,575.91,358.18Z" transform="translate(-253.82 -90.09)" fill="#444"/><path d="M826.18,989.91H668.39L541.26,787.32l-.04-.07L439.46,942.78l-30.84,47.13H253.85l.01-.01L364.15,823.57,465.82,670.24,263.43,367.18h.21A284.4625,284.4625,0,0,1,505.28,501.79l39.59,63.9.04-.07,34.76-60.87q1.14-1.995,2.31-3.96c0-.01,0-.02.01-.02A272.7062,272.7062,0,0,1,816.52,367.18h.03L619.37,681.76l-.01.02L805.91,959.71l20.26,30.19Z" transform="translate(-253.82 -90.09)" fill="#fff"/></svg>