<svg id="Layer_1" data-name="Layer 1" xmlns="http://www.w3.org/2000/svg" width="732.9" height="199.1293" viewBox="0 0 732.9 199.1293"><title>logo-white-icon</title><path d="M687.58,129.7l9.09-14.51,34.15-54.47v-.07a60.62,60.62,0,1,0-121.24-.0385V60.72l37.37,56,7,10.47-46.49,70.08h33.93l29.07-44.45,27.87,44.45H732.9Zm-16.31-25.43L658.55,83.73l-14.26-23v-.07a25.91,25.91,0,1,1,51.82,0v.07l-12.65,22.1Z" transform="translate(0 -0.0107)" fill="#0098ff"/><polygon points="657.42 121.889 674.52 146.619 641.38 197.249 607.45 197.249 657.42 121.889" fill="#fff"/><path d="M661.11,137.95l-51.56-77.2h0a62.38,62.38,0,0,1,53,29.51l17.74,28.62,52.61,78.39H698.33Z" transform="translate(0 -0.0107)" fill="#fff"/><path d="M668.46,109.15l10.41-18.24A59.78,59.78,0,0,1,730.8,60.75h0L684.64,134.4Z" transform="translate(0 -0.0107)" fill="#fff"/><circle cx="670.2" cy="58.7593" r="7.85" fill="#0098ff"/><path d="M0,20.05H29.13V197.27H0Zm14,80.57H70.67a23.3294,23.3294,0,0,0,12.37-3.23,21.92,21.92,0,0,0,8.29-9.21,30.3705,30.3705,0,0,0,3-13.77,31.2094,31.2094,0,0,0-2.87-13.86,21.83,21.83,0,0,0-8.29-9.26,23.22,23.22,0,0,0-12.43-3.3H14.02V20.05H69.84q16.22,0,28.52,6.77a47.77,47.77,0,0,1,19.1,19.07q6.83,12.32,6.83,28.52t-6.83,28.46a47.35,47.35,0,0,1-19.13,18.95q-12.28,6.73-28.49,6.73H14.02Z" transform="translate(0 -0.0107)" fill="#fff"/><path d="M182.09,160.09q0,4.63,2.32,7.13a8.5,8.5,0,0,0,6.58,2.5h8.65v27.91H183.8q-14.62,0-22.73-8.77t-8.11-24.74V20.05h29.13Z" transform="translate(0 -0.0107)" fill="#fff"/><path d="M228.77,189.41q-10.85-9.69-10.85-29.44,0-18.76,11-28.15t32.91-9.39h33.88l1.71,22.67h-35.5q-8.65,0-13,3.66t-4.32,11.21c0,5.29,1.86,9.2,5.6,11.76s9.41,3.82,16.96,3.82q13.91,0,20.66-3t6.77-9.51l2.56,18a21.3,21.3,0,0,1-7.26,10,35.5527,35.5527,0,0,1-12.49,6,60.0709,60.0709,0,0,1-16,2Q239.62,199.1,228.77,189.41Zm65.82-72.34q0-10.6-6.28-16.45t-17.73-5.85a46.092,46.092,0,0,0-14.39,2.31,44.6687,44.6687,0,0,0-12.67,6.47L224.14,87.22a49.21,49.21,0,0,1,19.5-13.47,71.7306,71.7306,0,0,1,26.82-4.82q16.1,0,27.55,5.54a39.32,39.32,0,0,1,17.45,16.08q6,10.54,6,25.41v81.3H294.59Z" transform="translate(0 -0.0107)" fill="#fff"/><path d="M391.46,199.1l-12.55-6.65a44.4708,44.4708,0,0,1-19.14-19.38q-6.58-12.72-6.58-30.77V125.11q0-17.79,6.58-30.4a44.37,44.37,0,0,1,19.16-19.16q12.56-6.59,30.22-6.58a74.32,74.32,0,0,1,19.08,2.37,57.9084,57.9084,0,0,1,16.09,6.89,43.37,43.37,0,0,1,11.88,11l-19.74,18.46a34.3087,34.3087,0,0,0-11.71-8,35.91,35.91,0,0,0-14-2.8q-13.53,0-21,7.37t-7.44,20.9v17.19q0,13.89,7.37,21.39t21,7.5a33.92,33.92,0,0,0,25.78-11.76l19.74,19.75a45.172,45.172,0,0,1-12,10.79,57.2242,57.2242,0,0,1-16.08,6.76,75.7032,75.7032,0,0,1-19,2.32Z" transform="translate(0 -0.0107)" fill="#fff"/><path d="M516.29,199.1l-12.68-6.55a44.68,44.68,0,0,1-19.38-19.31q-6.71-12.74-6.7-30.78v-14.3q0-18.76,6.4-32.05a45.1,45.1,0,0,1,18.65-20.24q12.24-6.95,29.43-6.94,16.22,0,27.73,8.1t17.55,23.46q6,15.36,6,37.06v8.28H497.4V124.55h58.86l-.12-1.35q-1.21-13.27-7.43-20.59t-16.7-7.32q-13.17,0-20.35,8.23t-7.2,23.3v16.09q0,14.39,7.81,22.12t21.93,7.74a38.61,38.61,0,0,0,14.2-2.74,42.9958,42.9958,0,0,0,12.62-7.62l19,17.79a70.7093,70.7093,0,0,1-21.63,14,63.21,63.21,0,0,1-24.2,4.94Z" transform="translate(0 -0.0107)" fill="#fff"/></svg>