<?xml version="1.0" encoding="utf-8"?>
<!-- Generator: Adobe Illustrator 23.0.2, SVG Export Plug-In . SVG Version: 6.00 Build 0)  -->
<svg version="1.1" id="Layer_1" xmlns="http://www.w3.org/2000/svg" xmlns:xlink="http://www.w3.org/1999/xlink" x="0px" y="0px"
	 viewBox="0 0 732.9 199.1" style="enable-background:new 0 0 732.9 199.1;" xml:space="preserve">
<style type="text/css">
	.st0{fill:#0098FF;}
	.st1{fill:#FFFFFF;}
</style>
<title>logo</title>
<path class="st0" d="M687.6,129.7l9.1-14.5l34.2-54.5v-0.1c0-33.5-27.1-60.6-60.6-60.6s-60.6,27.1-60.6,60.6c0,0,0,0,0,0v0.1
	l37.4,56l7,10.5l-46.5,70.1h33.9l29.1-44.4l27.9,44.5h34.6L687.6,129.7z M671.3,104.3l-12.7-20.5l-14.3-23v-0.1
	c0-14.3,11.6-25.9,25.9-25.9c14.3,0,25.9,11.6,25.9,25.9v0.1l-12.7,22.1L671.3,104.3z"/>
<polygon class="st1" points="657.4,121.9 674.5,146.6 641.4,197.3 607.5,197.3 "/>
<path class="st1" d="M661.1,138l-51.6-77.2l0,0c21.6,0,41.6,11.2,53,29.5l17.7,28.6l52.6,78.4h-34.6L661.1,138z"/>
<path class="st1" d="M668.5,109.1l10.4-18.2c10.6-18.6,30.5-30.2,51.9-30.2l0,0l-46.2,73.6L668.5,109.1z"/>
<circle class="st0" cx="670.2" cy="58.8" r="7.8"/>
<path class="st1" d="M0,20h29.1v177.2H0V20z M14,100.6h56.7c4.3,0.1,8.6-1,12.4-3.2c3.6-2.2,6.5-5.4,8.3-9.2c2.1-4.3,3.1-9,3-13.8
	c0.1-4.8-0.9-9.5-2.9-13.9c-1.8-3.8-4.7-7-8.3-9.3c-3.8-2.2-8.1-3.4-12.4-3.3H14V20h55.8c10.8,0,20.3,2.3,28.5,6.8
	c8.1,4.4,14.7,11,19.1,19.1c4.6,8.2,6.8,17.7,6.8,28.5c0,10.8-2.3,20.3-6.8,28.5c-4.4,8-11.1,14.6-19.1,19
	c-8.2,4.5-17.7,6.7-28.5,6.7H14L14,100.6z"/>
<path class="st1" d="M182.1,160.1c0,3.1,0.8,5.5,2.3,7.1c1.7,1.7,4.1,2.7,6.6,2.5h8.6v27.9h-15.8c-9.7,0-17.3-2.9-22.7-8.8
	s-8.1-14.1-8.1-24.7V20h29.1V160.1z"/>
<path class="st1" d="M228.8,189.4c-7.2-6.5-10.9-16.3-10.9-29.4c0-12.5,3.7-21.9,11-28.2c7.3-6.3,18.3-9.4,32.9-9.4h33.9l1.7,22.7
	h-35.5c-5.8,0-10.1,1.2-13,3.7c-2.9,2.4-4.3,6.2-4.3,11.2c0,5.3,1.9,9.2,5.6,11.8s9.4,3.8,17,3.8c9.3,0,16.2-1,20.7-3
	s6.8-5.2,6.8-9.5l2.6,18c-1.4,4-3.9,7.5-7.3,10c-3.7,2.8-8,4.8-12.5,6c-5.2,1.4-10.6,2.1-16,2C246.9,199.1,236,195.9,228.8,189.4z
	 M294.6,117.1c0-7.1-2.1-12.5-6.3-16.5s-10.1-5.9-17.7-5.8c-4.9,0-9.7,0.8-14.4,2.3c-4.5,1.5-8.8,3.7-12.7,6.5l-19.4-16.3
	c5.3-6,12-10.6,19.5-13.5c8.5-3.3,17.7-4.9,26.8-4.8c10.7,0,19.9,1.8,27.5,5.5c7.3,3.4,13.4,9.1,17.5,16.1c4,7,6,15.5,6,25.4v81.3
	h-26.9V117.1z"/>
<path class="st1" d="M391.5,199.1l-12.5-6.7c-8.3-4.3-14.9-11.1-19.1-19.4c-4.4-8.5-6.6-18.7-6.6-30.8v-17.2c0-11.9,2.2-22,6.6-30.4
	c4.2-8.2,10.9-14.9,19.2-19.2c8.4-4.4,18.4-6.6,30.2-6.6c6.4,0,12.8,0.8,19.1,2.4c5.7,1.5,11.1,3.8,16.1,6.9
	c4.6,2.9,8.6,6.6,11.9,11l-19.7,18.5c-3.3-3.5-7.3-6.2-11.7-8c-4.4-1.9-9.2-2.8-14-2.8c-9,0-16,2.5-21,7.4s-7.5,11.9-7.4,20.9v17.2
	c0,9.3,2.5,16.4,7.4,21.4s11.9,7.5,21,7.5c9.9,0,19.3-4.3,25.8-11.8l19.7,19.8c-3.3,4.3-7.4,7.9-12,10.8c-5,3.1-10.4,5.3-16.1,6.8
	c-6.2,1.6-12.6,2.4-19,2.3H391.5z"/>
<path class="st1" d="M516.3,199.1l-12.7-6.5c-8.3-4.3-15.1-11-19.4-19.3c-4.5-8.5-6.7-18.8-6.7-30.8v-14.3c0-12.5,2.1-23.2,6.4-32
	c4-8.5,10.5-15.6,18.7-20.2c8.2-4.6,18-6.9,29.4-6.9c10.8,0,20.1,2.7,27.7,8.1s13.5,13.2,17.5,23.5c4,10.2,6,22.6,6,37.1v8.3h-85.9
	v-21.3h58.9l-0.1-1.3c-0.8-8.8-3.3-15.7-7.4-20.6s-9.7-7.3-16.7-7.3c-8.8,0-15.6,2.7-20.3,8.2c-4.8,5.5-7.2,13.3-7.2,23.3v16.1
	c0,9.6,2.6,17,7.8,22.1s12.5,7.7,21.9,7.7c4.9,0,9.7-0.9,14.2-2.7c4.6-1.8,8.9-4.4,12.6-7.6l19,17.8c-6.3,6-13.6,10.7-21.6,14
	c-7.7,3.2-15.9,4.9-24.2,4.9L516.3,199.1z"/>
</svg>
