<svg id="Layer_1" data-name="Layer 1" xmlns="http://www.w3.org/2000/svg" viewBox="0 0 1200 350"><title>hero-banner</title><rect width="1200" height="350" fill="#fff"/><path d="M768.0637,278.4588a88.2591,88.2591,0,0,1-20.9889-5.0985,84.3408,84.3408,0,0,1-24.5737-14.4509,102.22,102.22,0,0,1-22.3563-26.2356,123.8189,123.8189,0,0,1-14.41-34.787,92.1743,92.1743,0,0,1-2.24-15.2908,67.5486,67.5486,0,0,1,2.6383-23.219,43.9512,43.9512,0,0,1,10.38-17.9613c7.7051-8.27,16.6961-14.9954,25.9841-21.3166,9.7386-6.6279,19.5906-13.0927,29.48-19.495a326.7833,326.7833,0,0,1,33.7934-19.68,128.711,128.711,0,0,1,30.9919-10.7857,103.3929,103.3929,0,0,1,27.3951-1.4926,161.3628,161.3628,0,0,1,47.5,10.8758c8.1692,3.1417,16.1429,6.7972,23.2374,11.9875,5.7366,4.1969,11.4211,8.437,17.5134,12.1227a148.2991,148.2991,0,0,0,24.5978,11.7962c8.4607,3.1877,16.933,6.3486,25.61,8.9188,3.5236,1.0437,7.0362,2.1281,10.5773,3.1088a26.2962,26.2962,0,0,1,12.9879,8.7212c6.76,7.8548,10.09,17.2292,12.0318,27.2164.0829.4262.2273.84.3431,1.26a1.8319,1.8319,0,0,1-1.38.8739c-2.6342.5333-3.6,2.4552-4.0571,4.8069a17.8149,17.8149,0,0,1-.4521,2.2017,1.4127,1.4127,0,0,1-1.5035,1.1394,1.2754,1.2754,0,0,1-1.3011-1.3235c-.1463-1.6927-.1548-3.2822,1.042-4.7784a7.8858,7.8858,0,0,0,.3309-9.4671c-.6342-1.0128-1.1982-.5228-1.8492-.12a30.047,30.047,0,0,1-8.8725,3.9381,5.5707,5.5707,0,0,1-4.002-.4645c-.6981-.3649-1.2854-.8609-1.0706-1.7627a1.4717,1.4717,0,0,1,1.5727-1.0913c1.7556-.0277,3.4755-.4139,5.2263-.46a8.2209,8.2209,0,0,0,4.9655-1.9778,5.4543,5.4543,0,0,0,1.5616-6.7645,64.556,64.556,0,0,0-7.0383-10.607c-.1535-.1959.0831-.0181-.13-.1312a17.4827,17.4827,0,0,0-10.7933-2.0432c-.8246.1131-1.1889.814-1.3665,1.61a15.3073,15.3073,0,0,0,.783,9.1879,10.6843,10.6843,0,0,1,.9112,2.65c.12,1.0107-.0924,1.9532-1.1565,2.2991-1.04.3382-1.6864-.4308-2.0568-1.226a15.6246,15.6246,0,0,1-1.6748-8.1654,12.8878,12.8878,0,0,1,1.2-5.0782c.5076-.9293.2048-1.2787-.8153-1.0583a6.3914,6.3914,0,0,1-.9275.135c-5.597.3692-6.7773,2.3216-6.2913,8.28a15.5683,15.5683,0,0,0,3,8.1839c.4785.6364,1.0425,1.3007.6162,2.213-2.9483,1.9606-3.3131,1.8679-4.4278-1.3367-1.2151-3.4934-2.3169-7.0136-1.5133-10.7965a2.8575,2.8575,0,0,0,.0275-.7478c-.0409-.7311.2-1.6234-.5494-2.0649-.8135-.48-1.5682.1017-2.25.52-2.0686,1.27-4.0909,2.613-6.076,4.0111a.5465.5465,0,0,1-.5225-.1582,2.8828,2.8828,0,0,1-.3294-1.8128c.1218-2.6491-1.2579-4.364-3.4532-5.5407a111.1918,111.1918,0,0,0-10.6853-4.5553,2.3137,2.3137,0,0,0-1.6532-.0407,39.9784,39.9784,0,0,0-7.4394,3.0685c-2.048,1.1927-2.1888,1.9438-1.2985,4.1527a15.3666,15.3666,0,0,0,5.4239,6.551,9.8071,9.8071,0,0,1,2.1363,1.81c.5689.7513.8849,1.6207.2137,2.3995-.6258.7261-1.5069.505-2.2438.0876a16.5629,16.5629,0,0,1-4.7883-4.4324,13.3559,13.3559,0,0,1-2.858-6.44c-.0477-.363.0788-.8776-.28-1.0321-.4885-.21-.7395.3354-1.04.6159-.5485.512-1.1006,1.0161-1.6853,1.4883-2.627,2.1215-3.0023,3.7912-1.5659,6.8868,1.6981,3.66,4.7741,5.8564,8.23,7.5826,1.8978.9479,3.9953,1.4489,5.921,2.3526.9729.4566,2.08,1.0114,1.7655,2.3078-.2859,1.1784-1.4224,1.5172-2.5287,1.5706-1.4227.0688-2.8989.2852-4.1133-.7885a23.2265,23.2265,0,0,0-2.3555-1.8482,23.6268,23.6268,0,0,1-8.2115-9.0438c-.388-.7927-.7548-1.9377-1.9089-1.7744-1.0387.1468-1.3112,1.241-1.6786,2.089-.3474.8019-.6928,1.6032-1.0679,2.393-1.5992,3.3671-1.4714,4.9,1.17,7.5679a20.7811,20.7811,0,0,0,13.8852,6.512,7.0958,7.0958,0,0,1,2.8974.6527c.6965.8034.1787,1.2382-.4908,1.6291a2.627,2.627,0,0,1-1.2861.16c-6.6631-.9651-13.1507-2.3587-18.0541-7.5406-.2138-.226-.4449-.4356-.6634-.6571-.7585-.7687-1.2331-.6678-1.5083.42a11.2621,11.2621,0,0,0-.1246,6.0722c.279.9624.9876,2.1387-.22,3.0757a44.3248,44.3248,0,0,1-10.1947.0132c-1.1709-1.4154-1.1336-2.5773.2614-4.0688a6.7385,6.7385,0,0,0,2.2693-4.5713c.0212-1.47-.3-2.6115-1.9889-2.8654a2.3315,2.3315,0,0,1-1.4967-1.0487c-.6928-.7992-1.969-.1307-2.62-1.0352-.8-1.8616.0846-3.6945.191-5.5242.1038-1.7846.2746-3.5908.4983-5.3817.4605-3.6871-1.827-6.3039-5.5563-6.4424-2.7406-.1018-5.4857-.0135-8.2287-.0325a7.1708,7.1708,0,0,1-2.589-.2438c-1.0217-.6707-1.0768-1.8075-1.1935-2.82a15.8874,15.8874,0,0,0-6.6461-11.7771c-3.6419-2.6334-7.3469-4.8527-11.8291-5.68-1.58-.2918-3.0927.5219-4.63,0a4.1373,4.1373,0,0,1-.2247-5.4933,18.0568,18.0568,0,0,0,3.8819-9.741,12.2574,12.2574,0,0,1,.1124-1.7484,3.7356,3.7356,0,0,1,.1261-.57,17.4,17.4,0,0,0-.0667-5.1783,27.1873,27.1873,0,0,0-1.716-8.5722,13.7634,13.7634,0,0,0-8.3372-8.5487c-1.2807-.49-2.5441-1.0263-3.8672-1.3957a15.5067,15.5067,0,0,0-12.603,3.4044A31.3664,31.3664,0,0,0,844.822,86.4a12.0594,12.0594,0,0,1-4.88,3.9809c-1.988.78-3.0866.1989-3.5324-1.899-.05-.2376.0916-.6209-.1112-.693-.3267-.1163-.4856.276-.6715.4879a4.2387,4.2387,0,0,0-.9932,4.1672,6.2763,6.2763,0,0,0,8.5208,4.2668c.3471-.1412.6783-.3213,1.0308-.4483,1.6717-.6021,2.1161-.3223,2.48,1.5464a4.3225,4.3225,0,0,1-.1095,1.1094,6.09,6.09,0,0,1-.9258,1.5826,4.8383,4.8383,0,0,0,1.3921,6.7981,2.3737,2.3737,0,0,1,.7882.7605c2.4459,4.6817,5.9259,8.2163,11.02,9.9776a3.7837,3.7837,0,0,0,2.5495.112c.6317-.0853,1.2981-.1,1.6078.5559.3963.8385-.5309.7506-.871,1.0785-.7351.7091.2276,1.85-.6366,2.5366a13.7658,13.7658,0,0,1-2.9678,1.9628,17.9785,17.9785,0,0,0-9.3186,10.7349c-2.429,7.2323-5.2189,14.3366-7.75,21.5329a3.312,3.312,0,0,1-2.9654,2.4363c-4.1535.5523-8.3049,1.1243-12.4617,1.65-2.3207.2933-2.9258-.3308-2.9334-2.8963-.031-10.5714-.01-21.1428-.0131-31.7142-.0018-5.38.0193-10.7592-.0093-16.1386-.0145-2.7244-.4734-3.2-3.1817-3.2026q-32.3712-.0275-64.7422-.0022c-2.4358.0015-2.62.206-2.6208,2.7266q-.0124,25.24,0,50.48c.0012,2.6144.0907,2.6924,2.7833,2.6958,6.3179.0081,12.6357-.0031,18.9536.0083a5.36,5.36,0,0,1,2.7528.3773,1.2564,1.2564,0,0,1,.46,1.1586,34.6162,34.6162,0,0,1-1.1455,5.8166,1.6145,1.6145,0,0,1-.9584,1.0746,6.8046,6.8046,0,0,1-2.2244.1893q-17.9451.0085-35.89-.0108c-1.0117-.002-2.1711.305-2.8785-.8317a2.8428,2.8428,0,0,1-.125-1.6533c.8868-5.0365,1.5493-10.1118,2.6042-15.1175.5348-1.3481.168-1.9758-1.373-1.9538-3.25.0464-6.502.0372-9.7528.0043-2.0156-.02-2.0376-.0837-1.9625-2.1048.2677-7.2041-3.9232-12.5115-10.8878-13.3327-1.363-.1607-2.7262-.3617-4.0809-.6009-.2388-.0421-.5721-.1429-.6977.07-.1548.2626.1773.4263.3605.5128,3.3512,1.5831,5.3817,5.1246,9.32,5.9636,2.1944.4675,3.5,2.7012,5.3063,4.0156.8391.6105.9481,4.0284.4188,4.8565a1.6035,1.6035,0,0,1-1.3115.6c-.54.0681-1.1618-.0715-1.4572.592-.0546,2.9435.81,5.7568,1.16,8.6387.2909,2.3972.8137,4.765,1.1535,7.1573.1339.9434.5135,1.9436-.1583,2.8616-1.242.6164-2.5759.3511-3.8714.37-3.0208.0431-3.2682.1694-3.2964,2.0274-.0292,1.9217.2172,2.0859,3.1944,2.0883,4.1209.0034,8.2418-.0035,12.3626.0043a8.6986,8.6986,0,0,1,2.6018.1987c.8121.3078.9572,1.1,1.2562,1.771,4.5783,10.28,9.2693,20.51,13.8841,30.7739,4.2817,9.5233,8.6047,19.0278,12.8737,28.5568,3.9619,8.8435,7.9991,17.6535,12.0282,26.4668q1.6771,3.6683,3.2821,7.3677c.7273,1.6735.3317,2.2632-1.5191,2.4155-.374.0307-.75.0127-1.1255.0239-3.4653.1031-4.9853,1.2565-5.9837,4.5444A1.6631,1.6631,0,0,1,768.0637,278.4588Z" fill="#c0ecf2"/><path d="M982.7385,155.6115c.3714-.8285-.3352-1.2582-.6883-1.8021-2.4934-3.84-3.8906-7.9287-3.0223-12.583.5357-2.8714,1.3517-3.8126,4.2442-4.4316,1.46-.3126,2.9543-.471,4.4351-.6855.87-.1261,1.1863.1161.7064,1.0041-2.2713,4.2028-2.0647,8.52-.4953,12.868.3487.9661.8226,2.4443,1.9528,2.0514,1.3965-.4855,1.0057-2.02.4581-3.1006a16.6046,16.6046,0,0,1-1.4217-10.9144c.2249-1.1968.5995-1.8482,1.949-2.0185,3.5957-.4539,6.9089.6794,10.27,1.5805a2.6074,2.6074,0,0,1,1.3546,1.2414q2.9349,4.3512,5.9033,8.68c3.9462,5.7394-.67,10.7736-5.9531,11.2111-1.68.1391-3.3681.1891-5.0537.2476-.7182.025-1.4665.0434-1.6486.8874-.2322,1.0763.7365,1.13,1.3916,1.403,2.1774.9081,4.2346.1255,6.153-.7156,2.326-1.02,4.8249-1.8118,6.6822-3.6963.6562-.6657,1.0138-.3687,1.4382.264,2.5984,3.8737,2.4249,7.5858-.4657,11.1967-1.0738,1.3414-.652,2.9784-.5484,4.5039.0354.5208.6629.4479,1.0928.4712.5857.0317.6974-.3457.7827-.8249a31.887,31.887,0,0,1,.7609-3.8521,4.794,4.794,0,0,1,4.0843-3.5793c.4909-.0866.97-.2407,1.4544-.3638a36.4393,36.4393,0,0,1,3.6527-.7347c2.2661-.2313,2.92.6773,2.0531,2.761-.4791,1.1518-1.1126,2.24-1.5774,3.397-1.6312,4.06-1.4794,8.3439-1.3414,12.5825.06,1.8306,1.4465,3.1208,2.8629,4.2153a1.0382,1.0382,0,0,0,1.5138-.059,4.6438,4.6438,0,0,0,.0089-2.603c-1.173-3.4157-2.4061-6.8206-1.8831-10.5392.3775-.7527-.0512-1.6075.3-2.3635a5.2019,5.2019,0,0,1,1.1192-4.0315c1.0714-.0522.9382.7471,1,1.4118.4754,5.0788.9651,10.1542,1.6568,15.2116.3789,2.7708.4381,5.5838.8555,8.3573a6.3147,6.3147,0,0,0,.664,2.5093c.8189,1.3162.36,1.7847-1.06,1.644-.2268-.0225-.3144.1447-.4142.2969a5.9389,5.9389,0,0,0,3.4018,4.1486c5.2283,2.5253,10.39,5.191,15.5381,7.8787,2.5327,1.3224,2.5239,1.7841.5587,3.7545-3.3184,3.3271-5.1155,2.8965-10.074.1989a62.2726,62.2726,0,0,1-10.0068-6.5828c-.6238-.5159-1.6666-1.4833-2.3792-.4741-.6339.8979.182,1.8533.9829,2.5561a28.3226,28.3226,0,0,0,14.5014,6.8772c.5063.08,1.3143-.0021,1.42.5291.0964.4848-.7072.6-1.1261.81-2.3412,1.1779-4.7206,2.2731-7.0487,3.486-2.3977,1.2493-5.1076,1.0167-7.7308.9413a39.3941,39.3941,0,0,0-7.2858.0533,6.6157,6.6157,0,0,1-4.5965-1.3042c-.9323-.6156-1.8174-1.3027-2.7237-1.9578a1.4944,1.4944,0,0,1-.9305-1.3149c-.1852-2.576-.9812-.7534-1.5393-.218-5.4756,5.2533-9.8769,11.3885-14.3217,17.4872-.2158.2962-.6284.6137-.5079.951.1873.524.75.22,1.1459.2655,1.6451.19,3.3582-.4046,4.9484.4313q3.13.0319,6.26.0637c.7622.0074,1.4786.0462.8743,1.1191-4.0385-.3628-8.0865-.1076-12.1294-.1855a6.7159,6.7159,0,0,1-3.4481-.6c-.9436-.8672-.2379-1.6288.2448-2.2946,4.8042-6.627,9.5054-13.3439,15.4675-19.0256,1.6123-1.5365,3.0118-3.133,3.4321-5.4292a4.3387,4.3387,0,0,1,2.2633-2.8575,3.4356,3.4356,0,0,0,.9852-.8568c.18-.2394.5129-.571.2553-.801-.2777-.2478-.4948.1786-.7048.3678a1.1329,1.1329,0,0,0-.2352.2909c-2.6149,4.776-7.0271,4.682-11.585,4.3569a7.63,7.63,0,0,1-7.2123-5.2652c-.9743-2.5068-2.2553-4.8844-2.1681-7.6794.03-.9611-.4593-1.2018-1.3233-.8887a8.7154,8.7154,0,0,1-5.3452-.0271c-1.72-.4554-1.9075-.269-2.0577,1.5308a137.7929,137.7929,0,0,0,1.6867,34.8932c.1932,1.1261.7564,2.2929.0639,3.4562a1.243,1.243,0,0,1-1.2048.0435c-1.2455-1.1992-1.1829-2.8662-1.3981-4.3618a168.3952,168.3952,0,0,1-2.0721-25.1795c.0273-3.8138.48-7.6008.851-11.39a5.9355,5.9355,0,0,0-.46-3.095,13.252,13.252,0,0,1-1.1556-5.2736,6.9567,6.9567,0,0,1,1.4243-3.79c.2209-.3559.5557-1.0284.2-1.1667-.5207-.2025-.5154.528-.6136.8857-.2321.8451-.603,1.6452-.8225,2.4844a4.6323,4.6323,0,0,1-2.3677,3.0078,14.7735,14.7735,0,0,1-5.5431,2.1365c-.962-.4691-.2719-.9411.0707-1.27,3.6261-3.4857,5.831-8.0384,8.959-11.8977a7.9881,7.9881,0,0,0,1.4609-3.6126c.3968-2.0792.7107-4.1738,1.0752-6.2593.0715-.409.3233-.9839-.0976-1.2209-.4387-.2468-.7357.3125-1.0517.581a37.0984,37.0984,0,0,1-7.19,4.6631,5.52,5.52,0,0,1-2.82.8784c-.6449-.4927-1.5419-.7323-1.7183-1.7.2474-1.0857,1.2194-1.3645,2.0449-1.7391q2.8938-1.3134,5.8558-2.4742a14.8811,14.8811,0,0,0,4.1632-2.4663,5.0324,5.0324,0,0,0,1.9327-4.4224C984.9107,156.47,984.8133,156.24,982.7385,155.6115Z" fill="#5a817a"/><path d="M968.488,65.8685a38.9117,38.9117,0,0,1,24.97,9.2738,22.069,22.069,0,0,1,6.6751,8.6289c2.9629,7.2635,1.1473,13.8271-3.3545,19.805a23.96,23.96,0,0,1-14.5974,9.43,28.3182,28.3182,0,0,1-14.1767-.93c-10.9842-3.3639-21.791-7.2035-31.4078-13.7146a19.78,19.78,0,0,1-5.5073-5.2639c-2.276-3.3771-2.0255-6.7456-.0519-10.0283,2.8173-4.6861,7.1008-7.8357,11.7848-10.4249A53.7384,53.7384,0,0,1,968.488,65.8685Z" fill="#c0ecf2"/><path d="M991.4439,235.24c4.6713.7921,9.383.2272,14.0717.4294.6685.0287,1.5613-.3638,1.81.74q-1.6308,11.0263-3.2622,22.0534-1.7859,12.048-3.5785,24.0949c-.5686.3895-1.2115.2-1.8171.2017-6.4162.0154-12.8333.0725-19.2483-.0155a99.7235,99.7235,0,0,0-10.3975.6634c-2.0107.1823-4.0925.64-6.0193-.4789a5.0884,5.0884,0,0,1-.934-2.7963c-.9688-6.2956-2.0152-12.5786-3.0235-18.8679-1.1231-7.4854-2.4609-14.9367-3.558-22.4261a7.9036,7.9036,0,0,1-.1629-1.8664c.03-1.63,1.1164-1.8457,2.4152-1.853,4.8946-.0276,9.79.0615,14.6817-.0486.217-.0543.4368-.1018.6555-.1511a3.3987,3.3987,0,0,1,1.3.05,36.9513,36.9513,0,0,0,7.0076.0509,2.7849,2.7849,0,0,1,.8336-.1081c.6781.1,1.3632.1724,2.0386.3087l1.2318.0638A6.99,6.99,0,0,1,991.4439,235.24Z" fill="#353539"/><path d="M768.0637,278.4588c.2778-4.0848,1.9432-5.6446,6.3753-5.9713,3.0089-.2218,3.0394-.2356,1.8194-2.9342Q762.1,238.2368,747.9216,206.9294q-6.6783-14.7622-13.33-29.5366a10.5,10.5,0,0,1-.4175-1.4157,3.5472,3.5472,0,0,1,4.2943.1825c2.2846,3.6018,3.7308,7.6153,5.485,11.4724q7.6785,16.8832,15.2768,33.8035c4.8831,10.8827,9.8463,21.7291,14.7184,32.6168,2.3977,5.3582,4.8657,10.6856,7.225,16.061a1.8437,1.8437,0,0,0,2.5617,1.1258c2.7451.064,5.4593-.3688,8.1941-.4833,3.27-.137,5.5208,1.1529,6.7257,4.2158a9.3648,9.3648,0,0,1-.0938,2.6178c-.6319,2.1707-.6319,2.1688,1.728,2.1763,7.7377.0247,15.4757-.0525,23.2124.0364,3.867-.0293,7.7348.0028,11.6026-.0142,2.5984-.0114,2.6852-.1491,1.8571-2.6861a34.2344,34.2344,0,0,0-1.5344-4.0173c-2.6-8.4264-5.7928-16.65-8.6284-24.9963-2.3532-6.9268-4.9259-13.7779-7.2477-20.7163a11.3728,11.3728,0,0,0-1.2873-2.904c-1.21-4.4681-2.9025-8.7752-4.44-13.1325-2.1834-6.187-4.1909-12.4376-6.6338-18.5327-1.1908-4.7158-3.1694-9.162-4.6994-13.7612-.3283-.987-.9261-1.9415-.3676-3.0387a3.8668,3.8668,0,0,1,3.7853-.2945c1.6239,2.0549,2.1328,4.61,3.0716,6.9682.6913,1.7368,1.2023,3.5439,1.82,5.3112a1.8936,1.8936,0,0,0,2.2442,1.4183,75.2968,75.2968,0,0,1,15.0922.7928,10.136,10.136,0,0,0,3.4315.2146,3.843,3.843,0,0,1,2.188.3978c.55.873-.1265,1.2746-.6986,1.6147-4.4648,2.6544-5.7358,6.596-4.8423,11.5271.4772,2.6343.7644,5.3041,1.0964,7.9635.1673,1.34-.043,2.4044-1.7161,2.4494-.436.0381-.8739.0081-1.3117.0046-3.5463-.0284-5.3632,2.3344-4.197,5.7169,2.7733,8.0441,5.6752,16.0442,8.4271,24.0956,1.3507,3.9521,3.0905,7.7807,3.9095,11.9082.1066-.0721.1294-.2456.2981-.2446a1.0381,1.0381,0,0,1,.6176.8722c1.2943,6.0121,3.8177,11.6226,5.72,17.436.7568,2.3134,1.5212,4.6307,2.4017,6.9051.217.56.4866,1.1943-.1194,1.7352a6.7632,6.7632,0,0,1-3.3145.4007c-14.1231.0111-28.2541-.2938-42.3675.078-20.869.55-41.7344.0879-62.6.31-2.4344.026-4.8484.5758-7.291.3431-.8018-.0763-1.8339.2168-2.159-.9733.0256-2.5771.0256-2.5771,2.5731-2.5771,12.8286,0,25.6574-.0347,38.4856.04C768.429,280.4277,768.91,280.0532,768.0637,278.4588Z" fill="#39352f"/><path d="M725.6084,282.954c1.7615.6163,3.581.2709,5.3614.2368,18.5739-.3559,37.15-.2417,55.7254-.3393,18.3251-.0962,36.6506-.1337,54.9759-.2092.6595-.0027,1.3946.2285,1.9385-.3961,2.2113-.93,4.569-.8329,6.89-.9847.6874,1.2469,1.8606.7368,2.8837.7858,7.4892-.1187,14.9743-.0236,22.4591-.0511a14.8151,14.8151,0,0,0,3.5307-.28,7.5955,7.5955,0,0,0,3.3572.0084,12.0853,12.0853,0,0,0,6.12.0039,6.5769,6.5769,0,0,0,3.2956-.0086,15.1073,15.1073,0,0,0,3.5252.296c6.0911.1053,12.1892-.2714,18.2743.2523a16.5933,16.5933,0,0,0,3.3225.0222c14.3808.16,28.76.02,43.1393.0653a7.549,7.549,0,0,1,2.6.2277c1.4041.4925,2.854.21,4.2782.21q15.6681-.0088,31.3363-.094c.6214-.0025,1.2424-.0923,1.8634-.1412-.5059.86-1.3469.4692-2.0255.4729-7.571.0412-15.1422.0394-22.7134.049a3.7911,3.7911,0,0,0-1.8144.3073c10.57,0,21.1425-.1589,31.708.05,8.3784.1661,16.7572.1891,25.1341.3575,7.6836.1545,15.3639.4689,23.0459.7071a6.0475,6.0475,0,0,1,2.6968.5325,23.2653,23.2653,0,0,1-2.51.4121c-3.18.1847-6.3615.3912-9.5451.4491-10.6293.193-21.2618.2409-31.8892.5028-12.7575.3142-25.5192.1588-38.2741.4138-24.459.4889-48.92.1045-73.3777.368-26.5241.2858-53.05.4237-79.5716.1655-28.7145-.28-57.4306.0352-86.1412-.3853-11.1323-.163-22.27.0319-33.3931-.3566-8.1931-.286-16.384-.1109-24.5727-.3259-8.1834-.2149-16.3654-.4828-24.5477-.736a5.7448,5.7448,0,0,1-1.4817-.18c-.5929-.18-1.2974.1466-1.7971-.4069a12.3051,12.3051,0,0,1,1.9873-.4162c3.12-.1445,6.2448-.2711,9.3632-.356,10.3139-.2808,20.6373-.2309,30.9495-.55,10.6937-.3308,21.3871-.2277,32.08-.3387A3.0682,3.0682,0,0,0,725.6084,282.954Z" fill="#c4b59a"/><path d="M1027.9658,196.71c.1494-.4409.5149-.481.9018-.4949.4935-.0177,1.0367-.1256.4095-.6892-1.3464-1.21-1.0505-2.92-1.2373-4.3719-.6779-5.2692-1.0876-10.5727-1.6069-15.8625-.2463-2.5087-1.0518-4.9688-.6462-7.54.02-.1269-.34-.3139-.5232-.4729,2.06-3.8363,3.5226-4.4959,7.7044-3.2814,1.1794.3425,3.0111,0,3.4014.9982.37.9448-1.4536,1.5719-2.1146,2.5486a17.7643,17.7643,0,0,0-3.21,10.3944c.0113.9414.1294,2.2669,1.0582,2.3251,1.2555.0788,1.669-1.2567,1.5628-2.344a21.9355,21.9355,0,0,1,.5222-6.4863c.4063-2.046,1.6366-3.6269,2.4664-5.4291.34-.739.966-.66,1.6053-.5411,3.8384.7131,6.7259,3.1551,9.7366,5.3679a1.193,1.193,0,0,1,.3936.6272c1.1414,4.4069,2.71,8.7495,2.9028,13.3286.1922,4.5569-4.6436,7.5916-9.6119,6.2032-1.6822-.47-3.33-1.0743-4.97-1.68-.7164-.2644-1.3507-.4017-1.8125.3366-.5359.857.2372,1.1784.71,1.6529,1.6337,1.6394,3.7614,1.6791,5.7943,1.5838,2.6559-.1245,5.4047.15,7.9111-1.1224.5241-.2661,1.1184-.2806,1.1009.4265-.0692,2.7909.91,5.6852-1.2822,8.2426a7.5087,7.5087,0,0,1-9.39,2.0877c-2.8707-1.4212-5.3615-3.44-8.06-5.1332A4.1724,4.1724,0,0,0,1027.9658,196.71Z" fill="#598d78"/><path d="M1000.192,235.2269c-2.0624.0164-4.125.0173-6.1869.0568-.8658.0166-.9927-.2525-.5017-.9441,4.9606-6.9877,10.0718-13.8515,16.2353-19.8548.2112-.2056.4475-.5866.755-.3792.1784.12.1976.5418.21.8312a5.4745,5.4745,0,0,0,.6934,2.688A97.3519,97.3519,0,0,1,1000.192,235.2269Z" fill="#f3ddbe"/><path d="M1025.7278,184.2129a2.37,2.37,0,0,1-.0089,2.603Q1025.7234,185.5144,1025.7278,184.2129Z" fill="#598d78"/><path d="M1024.1443,171.31c-.0534.7937.3237,1.642-.3,2.3635A4.5181,4.5181,0,0,1,1024.1443,171.31Z" fill="#598d78"/><path d="M824.089,160.0265l-.4356,3.3747c-5.1772,1.5572-10.4846.7461-15.6969.0952a29.5415,29.5415,0,0,0-9.8487.1051,5.9444,5.9444,0,0,1-1.1166.11c-1.9977-.0351-4.0005.0651-5.9983-.01-2.0979-.08-2.5335-.6258-2.0779-2.7137.9213-4.276,1.8676-8.547,2.7388-12.8329.3955-1.9427.3-2.0629-1.6323-2.0829-1.9978-.02-3.9956-.01-5.9933,0-2.3683.015-2.5035.1351-3.0192,2.3833-.9964,4.326-1.8126,8.6871-2.839,13.0031-.1552.6559-.0651,1.5672-1.0865,1.7174-7.7558,0-15.5167-.04-23.2775.025-1.477.01-1.9127-.4-1.9076-1.8976q.075-26.5645,0-53.1291c-.0051-1.7074.6208-2.1029,2.203-2.0979q33.324.0525,66.648.025c2.3282,0,2.909.6209,2.909,3.0593q.0075,24.409,0,48.8131C823.6634,159.1153,823.7335,159.7361,824.089,160.0265Z" fill="#f3f2f1"/><path d="M882.83,124.85c-1.07-.64-2.14.28-3.13.78-3.2,1.59-4.39,4.63-5.52,7.72q-4.14,11.265-8.25,22.57a2.5774,2.5774,0,0,1-2.38,1.98c-1.67.18-3.37.33-5.02.66-1.51.31-2.13-.32-2.45-1.75-.67-2.99-1.47-5.95-2.2-8.93-2.23-9.07.44-16.63,7.11-22.94a4.44,4.44,0,0,0,1.25-1.42,1.8489,1.8489,0,0,0,.11-.42c0-.03.01-.06.01-.09-.04-.48-.02-.98-.56-1.15a.7491.7491,0,0,0-.16-.04c-1.64.89-3.35,1.67-4.9,2.68-3.17,2.08-5.88,4.64-7.24,8.32q-4.35,11.85-8.66,23.73c-.35.95-.63,1.66-1.98,1.8-4.25.45-8.48,1.15-12.72,1.77-1.09.16-1.71.19-2.05-.09l-.06.47-.31,2.33-.07.57c.56-.17,1.12-.36,1.69-.59a5.1907,5.1907,0,0,1,1.48-.21c2.53-.29,5.06-.55,7.6-.81-1.43.32-1.76,1.37-.94,2.94v.03a.5344.5344,0,0,0,.06.14.6117.6117,0,0,0,.12.05,2.8444,2.8444,0,0,0,1.53.13,97.6384,97.6384,0,0,1,12.91-.58c6.19.18,12.25-.94,18.33-1.93.03,0,.06-.01.09-.01a1.7417,1.7417,0,0,0,.22-.05,6.5752,6.5752,0,0,0,4.5-3.32c.58-.98,1.19-1.92,1.68-2.93,1.87-3.89,3.72-7.79,5.77-11.59a43.11,43.11,0,0,0,4.74-16.69C883.53,126.91,883.92,125.51,882.83,124.85Zm-37.75,33.01a56.2247,56.2247,0,0,0,2-8.77c.71-3.73,1.41-7.46,2.22-10.73a24.3759,24.3759,0,0,0,.71,10.51c.8,2.82,1.57,5.66,2.25,8.52.28,1.18.13,2.04-1.25,2.14-3.06.23-6.07.83-9.09,1.34A4.1427,4.1427,0,0,0,845.08,157.86Zm-9.43,3.79q2.7-.285,5.4-.63A48.78,48.78,0,0,1,835.65,161.65Z" fill="#f3f2f1"/><path d="M982.5294,235.259l-.761.058a1.9155,1.9155,0,0,1-.7888-.78c-1.3087-3.7739-2.0246-7.7124-3.1641-11.5354-.2686-.9009-.474-1.7577-1.7229-1.2452a6.735,6.735,0,0,1-1.7443.0934,3.1055,3.1055,0,0,1-.8578-.1861,2.0513,2.0513,0,0,1-1.1378-1.1554,50.6861,50.6861,0,0,0-5.0019-9.279c-1.09-1.5679.6573-1.385,1.35-1.8259q1.5612-.8076,3.1344-1.5951c.3781-.19.818-.3059,1.0482-.7182-.5094-.2495-.7481.2537-1.1.4156-1.45.6663-2.78,1.6212-4.4344,1.7869-1.86-.8642-2.1275-2.7272-2.7456-4.3719a3.0176,3.0176,0,0,1,1.19-1.8381,19.6682,19.6682,0,0,0,2.0742-2.406,7.9338,7.9338,0,0,0-.22-9.7279c-.4652-.576-1.2042-.6469-1.7341-1.0607a22.6145,22.6145,0,0,1-5.7778-5.9911c-.0091.2328.1651.3885.1751.5926-.2514,1.8065-.7961,3.6171.11,5.4012a20.6617,20.6617,0,0,0,.0086,4.3907,2.599,2.599,0,0,1-.714,1.614c-.8632.3633-1.1837-.185-1.26-.8637-.4434-3.9251-2.8155-7.0552-4.4607-10.448a78.7984,78.7984,0,0,0-4.3271-7.8791c-.1809-.2089-.3522-.4255-.5211-.6441-1.0078-1.7615-1.6437-3.6937-2.8893-5.3721-.9645-1.3.5724-1.1771,1.2979-1.405.4609-.3441,1.2871-.5835.3784-1.32-.3812-.1437-1.0464-.1551-.9-.7057.5043-1.8913-.7565-3.1144-1.53-4.5441-.2957-.5467-1.0238-1.2329.0955-1.75,1.6569,1.1264,3.4347.7348,5.2.3961a1.2315,1.2315,0,0,0,1.088-.9143,1.2912,1.2912,0,0,0-.8675-1.3209c-1.5276-.7042-3.0758-1.3786-4.6593-1.9433a20.0815,20.0815,0,0,1-7.2043-4.2274,14.56,14.56,0,0,1-3.72-5.0794c-1.1066-2.693-.8018-4.3759,1.3579-6.3661,1.0087-.9295,2.0413-1.8333,3.07-2.7409.264-.2329.4843-.6823.9-.4973.3811.1695.3234.622.3529.9983.3876,4.9427,3.1966,8.3873,6.9771,11.2192.708.53,1.7221,1.1593,2.3238.4151.7326-.906.0373-1.9543-.84-2.5356a24.158,24.158,0,0,1-4.728-3.915,21.4588,21.4588,0,0,1-3.1567-5.4851,1.33,1.33,0,0,1,.3793-1.676c2.8632-2.7582,6.6006-3.6479,10.2146-4.8022a.6.6,0,0,1,.3707.01c4.47,1.7354,9.1349,3.0862,13.12,5.8409,2.3443,1.62,2.3338,4.2477,2.0858,6.812a11.28,11.28,0,0,1-1.5415,3.7144c-.1126.1924-.2161.57.0124.6536.2355.0857.2846-.3059.4056-.4916.7717-1.184.7063-2.6051,1.0927-3.8989a46.15,46.15,0,0,1,5.5464-3.9266,11.304,11.304,0,0,1,2.1285-1.1494c1.4613-.5142,2.16-.0269,2.14,1.5262-.0236,1.8656-.3461,3.7373-.2542,5.5923.15,3.0188,1.2539,5.8269,2.29,8.6392.3.8146.6459.9363,1.3485.4965a3.24,3.24,0,0,1,1.7072-.695c1.9881-.5183,2.505-.1539,2.755,1.9421.4318,3.6222-.747,5.786-4.5009,7.65-2.6032,1.2928-5.3415,2.3118-8.0023,3.4918-.6606.293-1.4416.4786-1.7651,1.2669a.97.97,0,0,1-.6822.214c-.497.0031-1.0117-.2175-1.4852.1084a7.7083,7.7083,0,0,1,1.4932.7207c.6764.3547,1.5008-.159,2.1269.4a30.9429,30.9429,0,0,0,10.5591-6.5257c.2658-.2581.5365-.5821.96-.42a.67.67,0,0,1,.4832.7276c-.978,3.8229-.6153,7.9981-2.8065,11.4915-2.1069,3.359-4.85,6.2742-6.8157,9.7583-.6673,1.1825-2.0313,1.9718-3.0769,2.9407-2.2859,1.6523-2.3023,1.903-.0161,3.804a17.0759,17.0759,0,0,1,4.471,5.6939c1.083,2.2129,1.2,4.2931-.9515,6.0482a11.0047,11.0047,0,0,0,1.6526-1.776c.7929-.8814,1.57-.8,2.0516.2475.671,1.4612,1.5495,2.87,1.5658,4.5659.0243,1.7852.0075,3.5672.02,5.3489a10.7591,10.7591,0,0,1-.7549,4.0273,7.2347,7.2347,0,0,0-.1164,5.1006c.9748,3.3555,1.7863,6.7561,2.637,10.1451C982.76,233.459,983.2409,234.3723,982.5294,235.259Z" fill="#5d727c"/><path d="M866.8431,162.0541a6.32,6.32,0,0,0,3.9995-3.1507,54.7042,54.7042,0,0,0,3.8688-7.6785c1.557-3.5406,3.72-6.7864,5.192-10.3839a47.1006,47.1006,0,0,0,3.1106-14.1932c.1491-1.8332-.56-1.7948-1.8722-1.2217a9.9734,9.9734,0,0,0-5.6579,5.9112c-3.07,8.38-6.185,16.7432-9.2183,25.1362-.4285,1.1855-.8594,1.8409-2.2952,1.9a57.6813,57.6813,0,0,0-6.481.85c-.6763.1055-1.2945.2261-1.4638-.637-1.0776-5.4923-3.4553-10.7339-3.4205-16.4319a23.0119,23.0119,0,0,1,8.2555-17.7771c.4606-.4053,1.0912-.6519,1.1932-1.3666.8444.1509.6992.92.8775,1.4587a4.9036,4.9036,0,0,0,5.6024,3.479,4.85,4.85,0,0,0,3.7263-5.6011c-.1352-1.0125-.7156-2.01-.1786-3.0648,7.0533-1.16,12.4662,2.03,17.58,6.3687,2.3967,2.0334,4.5571,4.05,5.1913,7.26q.6495,3.2868,1.3035,6.5728a4.5032,4.5032,0,0,1,.7919,2.645c.6051,8.8671,1.513,17.7111,2.0146,26.5855.0406.7181.25,1.501-.3216,2.146a3.7777,3.7777,0,0,1-2.1674.4228c-6.6.0022-13.1992.0374-19.7985-.0077-3.144-.1492-6.29-.0168-9.4354-.067a6.1122,6.1122,0,0,1-2.3736-.2354.51.51,0,0,1-.11-.9068c1.3171-1.0585,1.1424-2.5152,1.1711-3.9458C865.956,164.71,865.6819,163.2152,866.8431,162.0541Z" fill="#d6a87e"/><path d="M876.62,170.7451l22.1361-.0792c.8778-.7868,1.9619-.5235,2.9713-.5408,1.2806-.022,2.5586-.0871,3.8383-.1364,2.4285.1821,4.8611.0715,7.2914.1058a3.8381,3.8381,0,0,1,2.5007.5651l10.7894.0078a3.5561,3.5561,0,0,1,2.4887-.592c4.4891-.0128,8.9783-.0242,13.4673.0082.9745.007,2.0347-.1272,2.7282.8473,1.0467,4.806.4819,5.5359-4.273,5.54-1.496.0013-2.9922-.0223-4.487.0248-2.2613.1321-4.5232-.1-6.7856-.0047-.7169.1054-1.4328-.04-2.15,0-5.5923.093-11.1841.075-16.7763.0177-16.6288.0551-33.2572.1174-49.8854-.0264-17.0276.1574-34.0555.039-51.0831.0619-1.0985.0015-2.2648.2348-3.2425-.549-1.3046.09-2.6627-.4595-3.9091.3268a3.7162,3.7162,0,0,1-1.8356.2392q-28.6686-.0419-57.3373-.0143c-1.5616-.0009-3.1215.0241-4.6791.14-1.213-1.374-2.8-.5284-4.2135-.7094-5.7878-.0026-11.576-.0442-17.363.0227-1.2647.0146-1.5659-.3942-1.57-1.5858-.0133-3.67-.0595-3.6627,3.5978-3.6734,1.3681-.0039,2.7361-.0493,4.1041-.0758a1.0151,1.0151,0,0,1,.6184-.3884c3.5743-.2237,7.1514-.5424,10.711.1767.5478.6006,1.2748.4156,1.9437.416,12.6386.0076,25.2813.1944,37.9138-.0835,5.3676-.118,10.7531.0741,16.1022-.313A347.2771,347.2771,0,0,1,826.04,170.21c11.82.365,23.6316-.0439,35.436.3678,4.4294.1545,8.8547.2787,13.2848.2915A5.0156,5.0156,0,0,0,876.62,170.7451Z" fill="#3e5248"/><path d="M872.0814,119.282c.382,1.9212,1.2776,3.8089.4531,5.8164a5.4836,5.4836,0,0,1-5.4187,3.5073,5.5439,5.5439,0,0,1-4.789-4.7351,5.8819,5.8819,0,0,0-.2732-.8606q-.2067-.5939-.4136-1.1881a11.9647,11.9647,0,0,0-.4776-1.5936c-.3014-.6707-.3031-1.0548.5825-1.0454a5.6452,5.6452,0,0,0,1.0356-.1776c-.141-.6115-.6566-.4407-1.0559-.4946a3.3209,3.3209,0,0,0-.5575.0154,5.3327,5.3327,0,0,1-3.331-.9022,19.7129,19.7129,0,0,1-8.0492-7.5869,1.4058,1.4058,0,0,1-.2528-1.4028,2.1816,2.1816,0,0,1,.9751-.5264,5.4317,5.4317,0,0,0,4.0218-4.2315c.1878-.8663.5424-1.69,1.5769-1.88a2.1444,2.1444,0,0,1,2.3276,1.1909,4.9068,4.9068,0,0,0,4.9728,2.634c2.3823-.3356,3.76-2.0143,4.3777-4.3217.2269-.8478.2605-2.2209,1.6031-.7122.5219.5866,1.1839.2689,1.7189-.0377,1.26-.7222,2.09-.2561,2.4222.9815a3.21,3.21,0,0,0,2.6524,2.4623,14.6865,14.6865,0,0,1-3.483,9.4357C870.945,115.6234,871.4747,117.3166,872.0814,119.282Z" fill="#935d1c"/><path d="M905.45,170.2212c-1.3184,1.0639-2.855.334-4.2822.499a16.7264,16.7264,0,0,1-2.4112-.0542c-.8684-1.8869-.343-3.9343-.6314-5.9044-.5658-3.8653-.5693-7.81-.8761-11.7167-.3063-3.9-.7047-7.7922-1.0479-11.6892-.0547-.6206-.0318-1.248-.0445-1.8725q5.42.0153,10.8385.0322c4.3954.0188,7.02,3.3648,6.3221,7.7a78.6055,78.6055,0,0,0-1.0507,10.3415c-1.0962.8672-2.3861.352-3.5826.504-.8259.1048-1.755-.3117-2.4359.4871-.3828,3.0235-.0389,6.052-.1693,9.0707C906.04,168.52,906.27,169.5023,905.45,170.2212Z" fill="#e6bf76"/><path d="M876.1826,104.193c-1.7316.6146-2.495-.3527-2.8859-1.82-.3605-1.3535-.8-2.156-2.34-1.0419-.6713.4854-1.75,1.02-2.1752-.4858a1.5633,1.5633,0,0,0-.3051-.4237,4.701,4.701,0,0,0-.1834.6654,5.8492,5.8492,0,0,1-1.5867,3.511,5.1877,5.1877,0,0,1-8.3567-.74,5.2205,5.2205,0,0,0-.9827-1.3445c-.8709-.6406-2.0518-.0436-2.3055,1.2117a5.7863,5.7863,0,0,1-5.514,4.9919c-.7492.494-1.3129.1183-1.8474-.3941-4.0385-2.4949-4.5324-5.7661-1.4126-9.3562,1.9393-2.3884,5.9993-2.0222,8.05.7279a8.3408,8.3408,0,0,0,.8391,1.2343c.7907.7387,1.5392.5739,1.7638-.49.738-3.4948,2.8289-5.2766,6.4118-5.2981.1332-.0008.3025.2276.3829-.0189.011-.0337-.3144-.1485-.4765-.2395a11.1268,11.1268,0,0,0-8.3159-1.0938,18.3422,18.3422,0,0,0-6.1766,3.01c-.7345.5057-1.4173,1.2939-2.4976.9731-.02-2.21-1.1854-1.3734-2.2754-.8782-4.5425,2.0637-9.1706-.2308-9.9919-4.9372a6.0827,6.0827,0,0,1,2.47-5.35c.5525-.3148.6395-.1063.5683.4-.1645,1.1689-.5644,2.5615.7138,3.2057,1.3427.6768,2.5026-.4493,3.5889-1.0981a14.99,14.99,0,0,0,3.6711-3.7107c3.2953-4.0471,7.1859-7.1091,12.5818-7.7245a8.0232,8.0232,0,0,1,4.4036.215,3.4166,3.4166,0,0,1-.9213,2.3834c-1.8829,2.7947-3.6828,5.6455-5.6764,8.366-.3477.4744-.9849,1.0068-.5684,1.6442.3235.4951,1.0408.3252,1.5883.3,5.98-.2744,10.1844,2.3364,12.6345,7.7741.4055.9,1.0073,1.109,1.7813.63,1.5114-.9349,2.3671-.3321,2.7427,1.1639.366,1.4583,1.5785,1.7478,2.6931,2.2217Z" fill="#644a60"/><path d="M777.0857,163.1784c1.2191-3.7135,1.7154-7.5937,2.6223-11.3793.39-1.63.8185-3.2579,1.0713-4.9109.1769-1.156.7865-1.3953,1.7965-1.3847,2.9375.0307,5.8776.0771,8.8123-.0186,1.3716-.0448,1.3426.509,1.1105,1.55-1.0668,4.787-1.9839,9.6095-3.1553,14.37-.4081,1.6586.1772,1.812,1.5019,1.7846,2.061-.0426,4.1241.0136,6.1864.0279-.6051,1.236-1.8757,1.6946-2.9154,2.3753-1.7366,1.1369-3.125,2.3861-2.8582,4.7035-.2477.5766-.7519.5674-1.2566.5672q-6.8883-.0023-13.7767-.0011a.7326.7326,0,0,1-.6442-.2814A45.9183,45.9183,0,0,0,777.0857,163.1784Z" fill="#dadbcc"/><path d="M734.2563,170.674l-11.3133-.0092c-.975-6.376-2.3067-12.6981-2.8938-19.1328,2.7754-.4342,5.5675-.1115,8.351-.1733,2.4236-.0539,4.8494-.0166,7.2742-.01,1.8834.0055,1.8834.0123,1.6425,2.0231L734.63,169.92C734.3974,170.1175,734.5621,170.5124,734.2563,170.674Z" fill="#242b30"/><path d="M876.2719,102.378c-2.1891.8291-2.6544-.8865-3.1734-2.279-.4077-1.094-.6719-1.6137-1.8836-.7516-1.1661.83-2.0229.8226-2.6864-.9558a11.5237,11.5237,0,0,0-11.1149-7.3747c-1.166.0447-2.9066.7484-3.4252-.5411-.4153-1.0325,1.0625-2.0829,1.73-3.103,2.0754-3.1711,4.1839-6.32,6.28-9.4784,8.7394,2.4216,12.5037,6.0568,14.0876,15.7657a28.631,28.631,0,0,1,.1827,2.9842,23.7509,23.7509,0,0,1-.0042,5.73Z" fill="#403d4b"/><path d="M945.5985,160.9626c-.7331.9753.3646,1.4188.6419,2.0784.5774,1.3738,2.2178,2.4471,1.1058,4.2793-.0425.07.38.4222.5863.6427a25.1783,25.1783,0,0,1-11.6346-2.9269,17.2108,17.2108,0,0,1-7.5-7.3114c-.113-.2162-.3016-.4773-.26-.6771a20.9766,20.9766,0,0,1,3.8-8.807,1.0539,1.0539,0,0,1,1.77.03,2.9344,2.9344,0,0,1,.5749.73c2.1163,5.063,6.11,8.3974,10.4551,11.4159A2.7255,2.7255,0,0,1,945.5985,160.9626Z" fill="#61867b"/><path d="M905.45,170.2212l-.0165-12.347a59.6967,59.6967,0,0,1,9.7765.04c.2292.5547.05,1.282,1.1654,1.254,1.6775-.0422,2.3636,1.18,2.438,2.713a5.9933,5.9933,0,0,1-1.99,4.8527,4.1517,4.1517,0,0,0-1.4648,3.9262c-2.7325.0077-5.4651.0226-8.1977.0175C906.5592,170.676,905.8949,170.8383,905.45,170.2212Z" fill="#3a363a"/><path d="M944.5937,171.0619c-.5527-.6168-1.2876-.3621-1.9436-.3652-5.5008-.0257-11.0017-.0233-16.5027-.0293-.7707-3.2818-1.5691-6.5506-.2292-9.8975.3875-.9681.7038-1.2505,1.4632-.3347,5.2419,6.3212,12.5572,7.93,20.1728,8.8477-1.2016.3784-1.67.84-.46,1.8991,1.4049,1.2292,1.5192,3.1789,2.3636,4.7319-1.2886.9269-2.6616.657-4.0421.2875-.9068-.6033-.5789-1.5452-.6517-2.38A9.1512,9.1512,0,0,0,944.5937,171.0619Z" fill="#638c7b"/><path d="M734.2563,170.674l.3741-.7541c.089.8111.6939.7242,1.2534.7233q19.8483-.0317,39.6967-.0622c4.7433.0227,9.4867.03,14.23.0831.8551.01,1.3006-.2575,1.2915-1.1374.0855-1.0566.86-1.1741,1.6787-1.2355,1.7165-.0908,3.4331-.0806,5.1515-.025,9.2472-.1374,18.4935-.0457,27.7395-.0731,1.3956-.0041,2.7877-.0267,3.6476,1.3743.7586.77,1.7356.59,2.6532.5753,9.852-.1547,19.7044-.0343,29.5566-.0578,1.0382-.0025,2.138-.2108,3.0627.5208q6.0145.0694,12.0289.1391a2.1324,2.1324,0,0,1-1.4435.2574c-15.1331.01-30.2715.2662-45.3975-.056-11.6884-.249-23.3775-.3621-35.0539-.1408-19.4415.3683-38.88.0585-58.3189.2058C735.6868,171.0166,734.8947,171.2727,734.2563,170.674Z" fill="#8b8784"/><path d="M737.3169,153.3723c.1974-1.4583-.4153-1.8753-1.88-1.8511-5.1279.0846-10.2584.0195-15.3877.011.1593-.3452.4918-.2914.7841-.3738.8666-.2445,2.32.7031,2.54-.6732.2551-1.5966.4129-3.424-1.2265-4.6325-2.4739-1.8234-4.7449-4.0044-7.9805-4.4833a1.2333,1.2333,0,0,1-.8138-.4258c-1.4514-2.463-4.2284-3.3054-6.1958-5.1281-.2106-.1951-.5741-.3545-.4058-.7285.044-.0978.3328-.1405.4985-.12,5.3676.654,10.9225.705,14.6421,5.7334a12.3858,12.3858,0,0,1,2.1251,8.8753c-.1326,1.4925.3464,1.62,1.53,1.6069,3.4363-.0378,6.8734-.0084,10.31.0074C737.8713,151.199,737.9376,151.3092,737.3169,153.3723Z" fill="#5c817a"/><path d="M846.2676,97.7717c3.0283-1.681,5.6528-4.0916,9.2869-4.6618a12.2483,12.2483,0,0,1,8.9146,1.8947c.2428.1576.61.5326.5576.6637-.2024.5108-.589.1115-.9032.0538a5.3819,5.3819,0,0,0-6.6577,4.8315c-.0617.6037.1173,1.3276-.8454,1.3564-.7827.0234-1.5009.2289-2.0637-.7494-2.0787-3.6133-4.62-4.2408-8.27-2.1943Q846.2774,98.3689,846.2676,97.7717Z" fill="#935d1c"/><path d="M724.5753,147.2072c-.01-5.82,2.8362-10.2017,7.0965-13.8152,2.0757-1.7607,4.5731-1.3045,6.9947-1.0327.5169.058.5721.4452.3689.8194-.1744.321-.4151.7768-.7007.8405-3.7773.8434-4.5916,5.4834-8.2754,6.438a.9985.9985,0,0,0-.5981.679c-.267,2.2275-2.1592,3.23-3.4491,4.6857a3.4927,3.4927,0,0,0-1.1754,2.4639,3.778,3.778,0,0,1-.1771.88c-.0281-.2786-.07-.5566-.0808-.8359C724.5647,147.9562,724.5753,147.5815,724.5753,147.2072Z" fill="#5c817a"/><path d="M847.7,108.3223l1.8475.3942a20.0092,20.0092,0,0,0,11.62,9.81c-2.2852.7465-4.1275-.5208-5.8571-1.5662a22.36,22.36,0,0,1-7.5807-7.812C847.5821,108.9021,847.3627,108.6085,847.7,108.3223Z" fill="#fcf9f6"/><path d="M915.21,157.9137q-4.888-.02-9.7763-.04c2.2536-.6212,4.564-.0233,6.8329-.3173C913.2279,157.8371,914.2887,157.299,915.21,157.9137Z" fill="#3e5248"/><path d="M876.2643,102.3744q.0019-2.8651.004-5.73A12.0833,12.0833,0,0,1,876.2643,102.3744Z" fill="#644a60"/><path d="M991.4439,235.24a37.0336,37.0336,0,0,1-5.9558.0443,150.7675,150.7675,0,0,1-2.5659-34.106c.0892-1.8068.3041-3.6072.45-5.4115.09-1.12.5135-1.5236,1.6872-1.0594a8.1975,8.1975,0,0,0,7.0682-.0862c1.114-.5739.975.3356.926.89-.3439,3.8966,1.4435,7.14,3.0962,10.441a4.516,4.516,0,0,0,3.3053,2.4917,25.2365,25.2365,0,0,0,9.4934.1459c1.5449-.2526,2.3493-1.5565,3.248-2.6659.392-.4839.6676-1.0664,1.0824-1.5263.4835-.5363.8555-1.7348,1.8331-.9069.9291.7869-.0434,1.7444-.5471,1.9972-2.5707,1.29-3.4126,3.5461-3.9555,6.111-.11.5219-.7812.9425-1.229,1.373-6.7476,6.487-12.2754,13.9688-17.6231,21.5971A4.1517,4.1517,0,0,0,991.4439,235.24Z" fill="#f3ddbe"/><path d="M982.5294,235.259c-.4189-3.2174-1.4688-6.29-2.1862-9.439-.42-1.8433-1.0476-3.6383-1.5216-5.4707a2.5429,2.5429,0,0,1,.2815-1.798,15.2691,15.2691,0,0,0,1.1936-4.9551,24.8987,24.8987,0,0,0-.0266-6.1548,6.7394,6.7394,0,0,0-.2917-1.2546c-.499-1.1345-.8457-2.96-1.6377-3.19-1.094-.3186-1.4561,1.6227-2.39,2.3422-.331.255-.48,1.0951-1.0665.5845-.511-.4446-.1589-.9744.24-1.4535,2.0469-2.4574,2.0827-3.473.4827-6.2288a15.09,15.09,0,0,0-4.5311-5.1208,3.0521,3.0521,0,0,1-1.497-2.8221c.15-.9091,1.5972-.5352,2.4031-.9194a21.3588,21.3588,0,0,0,5.8605-2.391c2.0126-1.069,2.1678-3.2275,2.7436-5.109.25-.8175.214-1.7858,1.2393-2.1074a.691.691,0,0,1,.6045.2994,2.3143,2.3143,0,0,1-.3355,2.4774c-2.7826,2.8232-1.3146,5.79-.3476,8.69a7.7318,7.7318,0,0,1,.4746,3.5924c-1.7027,13.5771-.4477,27.0173,2.0353,40.3905C983.6954,235.898,983.1149,235.6931,982.5294,235.259Z" fill="#f3ddbe"/><path d="M994.3707,168.04c2.6962.61,5.5981,1.278,8.5063,1.9173.7219.1587.5978.47.2356.8724-.7008.7788-1.2824,1.5385-2.64,1.2071a24.9932,24.9932,0,0,0-4.6261-.4459,4.0674,4.0674,0,0,1-2.5435-.998c-.5365-.4647-1.55-.7974-1.2665-1.6348C992.3183,168.1247,993.3411,168.1657,994.3707,168.04Z" fill="#f0dcbd"/><path d="M1006.1534,188.0241a3.1361,3.1361,0,0,1,.4828.3772c1.4394,1.7283,2.8816,3.4546,4.2914,5.207.2029.2522.5412.6659.0988.9621a.9534.9534,0,0,1-.8656-.031,23.5354,23.5354,0,0,1-4.8465-5.178C1004.8,188.701,1005.6459,188.3558,1006.1534,188.0241Z" fill="#eddbbd"/><path d="M1016.9113,188.47c.0032.7412-.4487.6427-.8767.4738a2.1933,2.1933,0,0,1-1.1131-1.2151q-1.3771-2.96-2.6791-5.9549c-.1829-.4178-.5564-.9524.1986-1.23.7577-.2781.7912.2917.89.7949.4309,2.2038,1.7886,3.9468,2.898,5.8143C1016.4824,187.5808,1016.6881,188.0365,1016.9113,188.47Z" fill="#eadabc"/><path d="M993.6667,177.7445a6.2779,6.2779,0,0,1,1.329.2968c.5168.227,1.6608.0668,1.2093,1.1-.3455.79-.7726,1.9962-2.1519,1.3109a5.8615,5.8615,0,0,1-1.2583-.73c-.4546-.3941-1.0158-.8808-.7359-1.5553C992.327,177.5215,993.0334,177.8529,993.6667,177.7445Z" fill="#eddbbd"/><path d="M972.6784,171.4057c-1.0058.2587-2.0107.6-2.9254-.2646-.4057-.3834-1.4852-.4218-1.1925-1.0538a1.5094,1.5094,0,0,1,1.9838-.3813,6.54,6.54,0,0,0,.6814.2565C971.55,170.6047,972.7617,170.3534,972.6784,171.4057Z" fill="#ebd9bc"/><path d="M1000.4821,179.4126c.6089.0425,1.9961,2.0189,1.7783,2.56-.1828.4544-.6091.3379-.9427.2908-.5484-.0775-1.6077-2.0484-1.4162-2.5626A.4606.4606,0,0,1,1000.4821,179.4126Z" fill="#e2d4b8"/><path d="M910.3535,176.0255l16.8532-.0108c1.1619.7557,1.3754,2.0648,1.7626,3.22a13.6245,13.6245,0,0,0,4.5131,6.3233c1.7955,1.4595,3.33,3.2173,5.2374,4.5494a2.6161,2.6161,0,0,1,1.054,1.7167c.65,3.3214,2.9612,4.911,6.0049,5.7135a29.9816,29.9816,0,0,0,3.3339.5217c.8161.1194,1.7468.3728,1.6485,1.4245-.1035,1.1079-1.0872,1.27-1.99,1.2647a8.2737,8.2737,0,0,1-3.2308-.9126,24.4,24.4,0,0,1-4.4967-2.3181c-1.2609-.9025-1.5426-.3547-1.7562.8406-.37,2.0717.7412,3.5174,2.0638,4.7671a7.9139,7.9139,0,0,0,6.9934,1.8807c1.1129-.1723,2.2351-.275,3.3433-.4768a3.4873,3.4873,0,0,1,1.6734.0108c.7437.2292,1.4859.5628,1.4848,1.4615-.001.7991-.68,1.1428-1.3478,1.381a6.5653,6.5653,0,0,1-2.2292.2305c-3.3784.0066-6.7568-.0076-10.1351.012-.5348.0031-1.2384-.2063-1.5178.4147-.2624.5832.2679,1.0493.5907,1.4923a5.8711,5.8711,0,0,0,4.7139,2.3127,45.115,45.115,0,0,0,7.8438-.5645,10.13,10.13,0,0,1,2.2408-.1291c.6329.0682,1.3126.1583,1.4138.9554a1.329,1.329,0,0,1-1.0089,1.4162,12.1479,12.1479,0,0,1-5.71.7929c-1.4271-.1548-2.8626-.2822-4.2756-.5612-.2352-.0464-.61-.24-.6751-.1178-.1377.2561.2151.3808.38.5453a25.88,25.88,0,0,0,10.9821,6.9243,29.855,29.855,0,0,1,3.5961,1.605,5.9842,5.9842,0,0,0,2.7623.3919c2.0214-.091,2.5192-.6155,2.6244-2.5927.096-1.8059-.0886-3.48-1.4918-4.8406-.49-.4749-.9043-1.2678-.1609-1.79.7344-.5161,1.395.15,1.652.7431a9.6912,9.6912,0,0,0,5.4167,5.1574,2.5816,2.5816,0,0,1,1.3652,2.1348,100.4489,100.4489,0,0,1,1.48,12.4615.9325.9325,0,0,1-.2992.8421l.0155-.007c-.5513.4553-1.2039.2272-1.8046.23-4.6926.0215-9.386.0549-14.0776-.0143-1.4125-.0208-1.8331.4531-1.4148,1.7571q1.8807,11.9792,3.7612,23.9583c-4.6594.6042-9.1038,2.153-13.684,3.1157-9.24,1.9418-18.54,3.5241-27.8648,4.978a17.7261,17.7261,0,0,0-4.3527,1.0542c-.8144-.3663-.88-1.1758-1.0507-1.881a237.4661,237.4661,0,0,1-6.154-35.2578,17.0018,17.0018,0,0,1-.2271-4.6618c.0653-.2393.1131-.5579.3237-.6511,2.9676-1.3135,1.5519-3.9113,1.7428-6.0139.0719-.7916-.6361-.9554-1.3011-1.0136-.7926-.0693-1.6376.0711-2.3076-.5392-.3232-1.6617.5136-3.1586.6729-4.7613,1.19-11.9757,2.5184-23.9371,3.8624-35.8963C909.3342,178.39,909.0638,176.9241,910.3535,176.0255Z" fill="#c0ecf2"/><path d="M973.057,235.2189c-.4918-4.0918-1.0035-8.1814-1.465-12.2766-.17-1.5092-.5482-2.7035-2.2473-3.2214-2.3938-.73-3.7078-2.6132-4.6262-4.8411-.1907-.4627-.5318-1.29-1.1512-.872-.5818.3924-.0176,1.1406.3594,1.4212,2.2,1.6373,1.81,3.9183,1.6747,6.16a1.9033,1.9033,0,0,1-1.8558,1.9591,7.271,7.271,0,0,1-5.0789-.73,9.5654,9.5654,0,0,0-2.3851-1.0732c-4.98-1.4157-8.8414-4.53-12.43-8.0723-.2131-.21-.5763-.5868-.5169-.6989.23-.4344.6164-.11.9412-.0335,3.2394.7634,6.49,1.3043,9.81.51.4253-.1018.8518-.1994,1.2737-.3139.456-.1239.8218-.37.7943-.8968-.0386-.7374-.6471-.7037-1.1145-.6613-1.8637.1688-3.721.4075-5.5832.5949a22.2045,22.2045,0,0,1-6.1548-.0158c-2.3469-.4128-3.4759-2.1054-4.5154-3.874-.7076-1.2039.44-1.1664,1.1341-1.1718q5.9115-.0452,11.8235-.0074c1.1925.0066,2.8875.1671,2.79-1.2791-.0752-1.1191-1.79-.8827-2.9259-.7652a41.5371,41.5371,0,0,1-5.7787.53,8.0981,8.0981,0,0,1-7.12-5.4975,7.34,7.34,0,0,1,.4385-3.6693c.2235-.9043.8218-.2951,1.2691.0337a28.0845,28.0845,0,0,0,6.6408,3.4084,6.0473,6.0473,0,0,0,.9015.2551c.969.2095,2.3292.5108,2.5086-.6381.1656-1.06-1.2563-.9163-2.0733-.9841-2.8753-.2389-5.5323-.94-7.6033-3.1339a3.8209,3.8209,0,0,1-1.3254-2.4168c.0344-1.8235-1.1773-2.5621-2.3605-3.4861-4.5491-3.5524-8.5277-7.5456-9.8991-13.4463l2.0372-.0281c6.8338,1.6777,13.6857,2.2191,20.5765.3286.9511.5353,1.1107,1.6143,1.5589,2.45,2.35,4.3822,4.5756,8.8306,6.8688,13.2433a4.7076,4.7076,0,0,1,.6051,2.5006c-.03.5353-.1518,1.1782.6575,1.3234.4918,1.065-.4053,1.7192-.7485,2.5381-.2525.6024-.8722,1.357-.0075,1.7789.7152.349,1.351-.3383,1.5761-.98a12.9674,12.9674,0,0,0,.7842-6.7805c-.22-1.1646-.6475-2.2786-.8982-3.4364-.2853-1.3177.2411-1.9028,1.5508-1.7215a4.179,4.179,0,0,1,2.0083.9527,27.7519,27.7519,0,0,0,3.2394,2.206c1.4459.847,1.73,2.3881,1.9678,3.854.5768,3.5589-.7829,6.4562-3.2491,8.9343-.4408.4429-1.33.6418-.9211,1.5845.9638,1.3658,1.0122,3.3125,2.6841,4.2288.3938.4612,1.1768.21,1.4918.8156-1.6657.3408-1.5484.56-.542,2.0672a34.1657,34.1657,0,0,1,4.24,8.24,2.5072,2.5072,0,0,0,.8092,1.167c-.2791,3.86.7582,7.5982,1.0562,11.4052a5.3753,5.3753,0,0,1,.02,2.2008.9446.9446,0,0,1-.4085.4739Z" fill="#638c7b"/><path d="M955.7755,237.1846c-.7263-1.4772-.2542-1.9683,1.3631-1.9524,5.3107.0521,10.6225-.005,15.9338-.02-.513.7011-1.2618.3805-1.8983.3843-4.5435.0276-9.0882.06-13.63-.0218C956.278,235.5518,955.67,235.8807,955.7755,237.1846Z" fill="#638c7b"/><path d="M981.4154,234.5148l.3529.802a21.462,21.462,0,0,1-7.6048.0442l.1084-.1247c.8575-.7068,1.889-.5014,2.865-.5154A34.58,34.58,0,0,0,981.4154,234.5148Z" fill="#638c7b"/><path d="M738.3878,176.6865c.1686-1.2643,1.1621-.6888,1.76-.6906q18.261-.0541,36.5221-.0269,11.7057,0,23.4116.009c.7275.0013,1.5111-.215,2.1584.3439.4408,2.6976,1.8038,5.0842,2.5922,7.6681.7042,2.308,1.5879,4.5612,2.3882,6.84.2224.6331.5873,1.2574.1758,1.9494-.0793,1.1612-1.1018,1.7725-1.5853,2.706a33.8153,33.8153,0,0,0-2.2168,6.5627c-4.1294,14.6848-8.3254,29.3506-12.469,44.0313q-3.3369,11.8228-6.7171,23.6331a3.3236,3.3236,0,0,1-.992,1.9669c-1.3251.6618-1.9934.1062-2.559-1.1506Q769.29,244.8239,757.6533,219.15,748.0374,197.9106,738.3878,176.6865Z" fill="#f3ddbe"/><path d="M850.6849,281.45a30.0069,30.0069,0,0,1-7.0753.7964c-1.832-3.3419-2.6481-7.0689-3.9842-10.5986-1.4738-3.8933-2.6555-7.8969-4.119-11.7944-.4873-1.298-.3182-2.6924-.9111-3.93-1.0863-2.0284-1.25-4.28-1.5094-6.4936-.886-7.5512-2.1669-15.0533-2.8179-22.6305.08-.6-.041-1.378.6591-1.6158.5645-.1916.798.4523,1.0759.85.6361.9105,1.1813.35,1.6716-.139,4.1142-4.1006,8.3761-8.0659,12.2734-12.3673,3.36-3.7086,6.9971-7.1279,10.4678-10.7176,2.2574-2.3348,4.59-4.597,6.88-6.9.793-.7973,1.1079-1.4328-.416-1.6458a2.7153,2.7153,0,0,1-1.2058-.49.8213.8213,0,0,1-.449-.7654c.0562-.3473.3868-.4675.6953-.5234,1.05-.19,2.1193-.0769,3.18-.1794,5.6287-.0247,11.2131.66,16.82.9524,4.4254.2311,8.8356.697,13.2619.8767,3.3546.1362,3.6262.2583,3.376,3.5124a107.6057,107.6057,0,0,1-1.214,12.67c-.8245,4.1761-2.6237,7.7905-6.25,10.283a5.3913,5.3913,0,0,1-1.8411.2444q-10.26.0219-20.5189-.0034a8.4858,8.4858,0,0,1-2.5757-.3553c-4.3833-1.2467-8.7825-2.4454-13.1515-3.75-.479-.1431-.977-.2129-1.4625-.3293-1.29-.3093-1.8865.1219-1.7994,1.5029q.236,3.738.5284,7.4718c.49,6.2852.8969,12.5762,1.375,18.8619.4686,6.1608.8715,12.3263,1.3425,18.4869.2043,2.6733.4794,5.3475.5064,8.0338a24.13,24.13,0,0,1,.3194,6.1466C853.6645,279.3144,852.5468,280.8811,850.6849,281.45Z" fill="#063c54"/><path d="M783.4159,271.6794q3.9-13.8724,7.8-27.745c3.93-13.9944,7.8243-27.9991,11.81-41.9777.8711-3.0554,1.3167-6.3455,3.7822-8.7292a6.0688,6.0688,0,0,1,.5881-.448,3.7715,3.7715,0,0,1,1.2128,2.0561q4.8846,13.8436,9.7469,27.6951a2.5063,2.5063,0,0,1,.0943,1.9832c.0239,2.4-1.2161,4.4369-2.073,6.5319-4.9575,12.1209-9.4154,24.438-14.4293,36.5355-.8837,2.1319-1.6858,4.2973-2.5992,6.417a1.655,1.655,0,0,1-.9607,1.0821c-1.018-.97-1.3516-2.47-2.781-3.1734-2.0538-1.0109-4.2039-.7034-6.24-.4709C787.3694,271.6642,785.3983,271.6088,783.4159,271.6794Z" fill="#063c54"/><path d="M798.3879,275.08c3.9522-10.0343,8.161-19.9648,11.8534-30.1053,2.139-5.8744,4.7139-11.59,7.0785-17.3826.4129-1.0114.7552-2.0516,1.13-3.0786,1.09-.2805.8266.722.98,1.155q6.47,18.2989,12.8686,36.6234c1.0132,2.89,2.0339,5.7783,3.0329,8.6737.1969.5708.5989,1.133.2393,1.786-1.4619,1.1448-3.2465.5965-4.8605.8125a18.0851,18.0851,0,0,0-5.9384,1.369c-4.7365.0377-9.4076.8041-14.1069,1.2555-3.47.3333-6.9.9472-10.3438,1.4623-.7325.11-1.4863.2948-2.1258-.2965Z" fill="#c0ecf2"/><path d="M806.1489,175.995q26.7061-.029,53.4122-.0541c.31,0,.6194.0573.9291.0879a.412.412,0,0,1-.1986.5073c-1.4747.2426-1.936.9588-1.468,2.4787a54.9936,54.9936,0,0,1,1.6578,9.0257c.1975,1.49.2084,2.994,1.4537,4.1131.2192.1969-.0226.4306-.3.5-2.6114.636-5.2147.01-7.8045-.121-5.7253-.29-11.4349-.875-17.1723-.9881-.9859-.0195-2.0162.1414-2.8744-.5574l-2.083-.0795c-1.1565-.3782-2.3849.1084-3.5394-.294-5.4092-.3917-10.8045-1.3273-16.2462-.4507a.8385.8385,0,0,1-1.1112-.642c-1.5484-4.3284-3.1328-8.6438-4.6924-12.9682A1.467,1.467,0,0,1,806.1489,175.995Z" fill="#f3ddbe"/><path d="M833.7837,190.9869c8.8585-.1685,17.6523.9052,26.4774,1.3782.5546.03,1.1109.0272,1.6664.04a1.6053,1.6053,0,0,1,1.1836-.4193c.6215.0671,1.3458-.0539,1.5382.8192-.4359.0228-.8745.022-1.3068.0739-.5953.0714-1.6758-.2373-1.6931.1691-.0337.7933,1.0212.6076,1.5972.8714.4787.2192,1.2966-.2644,1.4938.3954.2115.7077-.4322,1.2371-.9152,1.72-4.9872,4.9918-10.1109,9.8558-14.9294,15.0053-4.8621,5.196-9.956,10.1538-14.9287,15.2351-1.045,1.0678-2.007,1.816-2.497-.4156-.0521-.2373-.2762-.5411-.4778-.366-.1913.1661-.1816.5635-.26.8593-.8686-.2533-.774-1.0362-.8809-1.6741-.359-2.1419-.6236-4.299-.8231-6.46a6.0127,6.0127,0,0,0-1.74-4.2869c1.6329.0741,1.7318-.8071,1.5244-2.1528-.5372-3.4852-1.12-6.9786-1.3583-10.4908-.284-4.1888,1.7054-7.271,5.3724-9.2807C833.2537,191.7736,833.7816,191.6237,833.7837,190.9869Z" fill="#0f556d"/><path d="M827.2885,213.9318c1.5274.0518,1.9017.92,2.0644,2.3485a89.1788,89.1788,0,0,0,1.3792,10.0726c1.1588,9.8736,2.4055,19.7355,3.8632,29.57-.0226.0582-.0439.1169-.0682.1743s-.0515.1135-.0775.17a11.4564,11.4564,0,0,1-.7068-1.391c-4.052-11.52-8.0242-23.07-12.1836-34.5511-.8993-2.4825.54-4.1655,1.2164-6.15.1754-.5146.7215-.3783,1.1508-.3633Q825.6075,213.87,827.2885,213.9318Z" fill="#c0ecf2"/><path d="M823.5837,276.795c.0215-.93.7682-1.4623,1.1907-2.1727a7.1368,7.1368,0,0,1,4.674-1.4826c2.0425-.0864,4.0816-.2548,6.1222-.3877,1.6293,1.853,1.8446,4.294,2.63,6.4878.4065,1.1352-.6269,1.0933-1.3791,1.0925q-6.627-.0069-13.2542-.0226a.1716.1716,0,0,1,.0315-.2328A9.4582,9.4582,0,0,1,823.5837,276.795Z" fill="#211c17"/><path d="M828.1613,190.6134a9.9868,9.9868,0,0,1,3.5386.2939C830.5155,190.8745,829.2942,191.2761,828.1613,190.6134Z" fill="#39434b"/><path d="M889.3446,272.4424q1.1753,4.6725,2.3506,9.3451c-.8528,1.4987-1.7285,1.0054-2.61.03-.806-.4766-.8272-1.35-1.0482-2.112-.9227-3.18-1.6272-6.4236-2.7514-9.5467a48.4928,48.4928,0,0,0-1.2177-5.7326,215.5332,215.5332,0,0,1-5.4416-34.9763,2.4866,2.4866,0,0,1,.2136-1.8139,2.5308,2.5308,0,0,1,2.6323-.0453c1.4107,2.4555.9448,5.2341,1.2739,7.8627a211.2258,211.2258,0,0,0,3.56,21.8171c.3275,2.0351.7853,4.0465,1.1809,6.0689.6364,2.2839,1.1729,4.5938,1.7577,6.8914A3.8464,3.8464,0,0,1,889.3446,272.4424Z" fill="#8a8886"/><path d="M914.2247,282.5327l-3.4337-12.7195a4.28,4.28,0,0,1-.9528-2.2055,227.3717,227.3717,0,0,1-6.0276-35.252c-.1264-1.5308-.7436-3.074.0591-4.5968,1.1264-.6228,2.165-.9157,2.6787.7252a243.8846,243.8846,0,0,0,6.9209,41.2537,2.17,2.17,0,0,0,.262.4852l3.1343,12.3206A2.4893,2.4893,0,0,1,914.2247,282.5327Z" fill="#5c5348"/><path d="M855.55,273.1824q-1.3167,4.7013-2.6335,9.4025c-.7106-.4438-2.4484,1.132-2.2315-1.1351,3.4173-2.3241,2.5725-5.8178,2.4873-9.0984-.0127-.4866-.1062-.9711-.1623-1.4567,2.639-12.094,5.4043-24.165,6.5479-36.5278.15-1.6185.3949-3.2263.3906-4.8593a2.15,2.15,0,0,1,.8717-1.9742,2.3627,2.3627,0,0,1,2.2915.0869,4.0525,4.0525,0,0,1,.4753,3.0616,237.5169,237.5169,0,0,1-7.2144,40.8491A3.3628,3.3628,0,0,1,855.55,273.1824Z" fill="#8d8a89"/><path d="M885.6369,270.2q-1.519,5.8221-3.0382,11.6444c-.9091.9484-1.814,1.5988-2.6872-.037a96.2837,96.2837,0,0,0,2.3633-9.3495c.232-2.7732.4607-5.5473,2.2257-7.888A14.1586,14.1586,0,0,1,885.6369,270.2Z" fill="#5c5348"/><path d="M792.5458,168.7212a1.5005,1.5005,0,0,0-1.4448.8061c-.936-1.6056.3743-2.4761,1.2831-3.2212a51.15,51.15,0,0,1,4.6473-3.089c4.65-1.35,9.26-.4263,13.9061.1163,3.7853.442,7.8487.9437,11.3689-.1275,5.7054-1.7362,11.5069-1.4827,17.2443-2.2292,3.7544-.4885,4.4977-.9093,5.445-4.5487,1.5714-6.037,2.1935-12.2816,3.8618-18.3013.6134-2.2134.9714-4.5352,2.4027-6.4413.19-.2528.3883-.777.8022-.5357.288.1678.0237.5754-.1109.8442-3.1018,6.1941-2.7889,12.53-.8594,18.9607.6989,2.33,1.1426,4.7385,1.8959,7.0483.454,1.3919.16,1.8466-1.2668,2.0138-5.3295.6249-10.6389,1.4333-15.9762,1.9728-1.833.1853-2.6754.7152-2.259,2.6047.8592,1.5646.5567,3.2284.3823,4.87a1.0094,1.0094,0,0,1-1.099,1.0111c-1.4017-.0674-2.8188.2261-4.2058-.1772.183-1.4941-.7437-1.5274-1.8617-1.524q-13.2984.0409-26.597.014c-.81,0-1.62-.0552-2.43-.0847-.0645-1.4068,1.1491-.9271,1.8272-1.2279.4964-.22,1.4706-.1633,1.4292-.5848-.0513-.5218-.9027-.756-1.5113-.8771a6.794,6.794,0,0,0-5.08,1.3747C793.71,167.7886,793.1425,168.275,792.5458,168.7212Z" fill="#935d1c"/><path d="M828.5635,170.2977c4.7894-.0443,4.7885-.0443,4.8657-4.779.005-.3083.0369-.6161.0566-.9243,10.8459-1.15,21.8658-.0574,32.61-2.5292a3.5044,3.5044,0,0,1,.7473-.0112A14.2617,14.2617,0,0,0,866.5,167.24a2.8965,2.8965,0,0,1-1.9083,3.3664q-17.423.0267-34.8462.05C829.3241,170.6566,828.8536,170.7569,828.5635,170.2977Z" fill="#a56621"/><path d="M981.4154,234.5148c-.0612.9859-.8175.7367-1.3814.74-1.9206.0132-3.8414-.01-5.7621-.019-.4784-3.89-1.0077-7.7748-1.39-11.6741-.0707-.7219-.978-1.9148.6137-2.2808l.6734.127a2.9573,2.9573,0,0,0,2.0383.0112c1.0366-1.0893,1.4653-.9081,1.8357.5992C979.0727,226.2074,980.279,230.3525,981.4154,234.5148Z" fill="#f3ddbe"/><path d="M964.8129,204.763c-.2959-.052-.74-.0016-.86-.1751-.357-.5181.1918-.8141.4987-1.0156a9.3835,9.3835,0,0,0,3.1934-3.7985,9.7831,9.7831,0,0,0,.9542-5.437,4.458,4.458,0,0,0-2.0488-3.7857c-1.4413-.8674-2.8267-1.8272-4.2614-2.7061a1.44,1.44,0,0,0-1.5942-.1709c-.5978.4283-.2157,1.0722-.01,1.54,1.3723,3.1276,1.21,6.3049.4893,9.54a2.4235,2.4235,0,0,1-1.0587,1.6717c-.6759.42-1.4486,1.0216-2.1949.29-.6473-.6349-.2088-1.3868.1445-2.062.49-.9362.9649-1.88,1.4461-2.8209q.25-.7.5-1.4a20.7078,20.7078,0,0,0-.014-4.66c-1.462-1.8368-.0047-3.727-.1022-5.5887-.0785-.3748-.2728-.8222.44-.7015,1.8752,2.6478,3.914,5.1186,6.9772,6.4916a1.932,1.932,0,0,1,.615.3975c2.3805,2.5215,2.6141,7.5808.5043,10.3822A33.0385,33.0385,0,0,1,964.8129,204.763Z" fill="#eedbbd"/><path d="M814.275,170.2751a1.5,1.5,0,0,0-1.4447.806c-.9361-1.6055.3742-2.476,1.2831-3.2211a51.1366,51.1366,0,0,1,4.6473-3.089c4.65-1.35,9.26-.4264,13.906.1162,3.7854.4421,1.6933,1.1538,5.2134.0826,5.1067,1.11,8.5048,4.3108,3.1676,4.85-1.8331.1853-10.348.5265-19.2137.5214-.81,0-1.62-.0552-2.43-.0847-.0645-1.4068,1.1491-.9271,1.8271-1.2279.4965-.22,1.4706-.1633,1.4292-.5848-.0513-.5218-.9027-.756-1.5113-.8771a6.7941,6.7941,0,0,0-5.08,1.3746C815.4393,169.3425,814.8717,169.8289,814.275,170.2751Z" fill="#a56621"/><path d="M949.82,176.3152c-.7527,1.32-2.1565,1.22-3.3285,1.3343-5.293.5175-10.588.7725-15.7571-.9525a3.4339,3.4339,0,0,1-1.4909-.71l6.6371.0038a59.7218,59.7218,0,0,0,9.45-.0275l4.1269-.0488Z" fill="#efdbbd"/><path d="M968.9888,209.8074c-.4848-.2947-1.7109.7664-1.4918-.8156,1.6281-.7918,3.2519-1.5928,4.8876-2.3687.37-.1757.7223-.8948,1.2005-.128.4743.7609-.1653.994-.6387,1.249C971.6368,208.45,970.3092,209.122,968.9888,209.8074Z" fill="#eadabc"/><path d="M967.8324,145.1284a6.1741,6.1741,0,0,1-1.106,4.9478c-.1389.1925-.3316.4765-.5092.4839-.3774.0157-.4029-.4006-.4874-.6665a1.6719,1.6719,0,0,1,.1866-1.5885c.7019-1.0148,1.3036-2.0988,1.9469-3.1541Z" fill="#ead9bc"/><path d="M972.7356,160.0053c.038.4506-.2606.73-.5239.6665a2.1846,2.1846,0,0,1-1.5049-1.4915c-.1256-.3657.4461-.58.7929-.5529C972.3434,158.6939,972.3962,159.5225,972.7356,160.0053Z" fill="#e1d4b9"/><path d="M980.27,207.4414a12.4117,12.4117,0,0,1,.0264,6.1542Q980.2834,210.5191,980.27,207.4414Z" fill="#638c7b"/><path d="M959.9964,189.7726a7.0127,7.0127,0,0,1,.0139,4.66A14.0474,14.0474,0,0,1,959.9964,189.7726Z" fill="#638c7b"/><path d="M960.3337,183.4824c-.41.069-.3469.4339-.4394.7016-.0964-.1492-.2694-.2959-.2741-.4478-.0125-.4048-.5632-.9581-.1366-1.1394C960.091,182.3387,960.0963,183.1211,960.3337,183.4824Z" fill="#638c7b"/><path d="M976.2076,221.42a1.6922,1.6922,0,0,1-2.0379-.0113Z" fill="#638c7b"/><path d="M864.6493,192.8047l-1.5109-.3485a1.8,1.8,0,0,1-.5622-1.3308,78.8493,78.8493,0,0,0-2.0964-12.8181,2.8488,2.8488,0,0,1-.0255-1.997c.0079-.0944.0194-.1883.0353-.2817,6.6865-.0155,13.3724-.045,20.0584-.0437,4.5256.001,7.1826.0025,18.3483.0214l11.4579.0192c-.2565,1.647-.6773,4.1952-1.06,7.3307-.6595,5.4078-1.2418,10.8253-1.8153,16.2431-.437,4.1277-.7572,8.2684-1.2341,12.3912-.3186,2.7541-.3253,5.5749-1.4335,8.1952a2.1851,2.1851,0,0,1-1.866.6532c-3.2935.0537-6.5874.0476-9.881.0037a2.3709,2.3709,0,0,1-1.8923-.6092c4.8608-4.1849,5.987-9.8657,6.365-15.8531.1692-2.68.3054-5.3647.5989-8.0317.1289-1.171-.1766-1.53-1.332-1.6-8.1648-.4906-16.3257-1.0468-24.4892-1.5612C869.7618,193.027,867.2046,192.9306,864.6493,192.8047Z" fill="#e6bf77"/><path d="M945.3308,175.9628a28.7919,28.7919,0,0,1-9.45.0274c2.3547-.0227,4.7117-.1158,7.0633-.0411,1.3394.0426,1.7476-.4623,1.6463-1.7265-.084-1.0469-.0044-2.1068.003-3.1608.7051.9224.256,1.9842.3353,2.9781A4.3376,4.3376,0,0,0,945.3308,175.9628Z" fill="#5d727c"/><path d="M911.9051,152.2135c-.1417,1.3613.15,2.8939-1.2637,3.8457a2.0582,2.0582,0,0,1-.6616.1678,1.45,1.45,0,0,1,.1007-.4649c1.2609-2.0355.6418-4.2277.5086-6.3673-.0535-.86-.3389-1.7041-.4572-2.5639-.0492-.3574.0567-.9288.4059-.9306.5085-.0027.2484.5582.2638.8582C910.8982,148.6313,912.3385,150.2241,911.9051,152.2135Z" fill="#f9f2e2"/><path d="M909.6422,152.1611c0,.8727.0351,1.7475-.0142,2.6174a.8189.8189,0,0,1-.8371.8424c-.5762-.0143-.6274-.5-.6551-.9507-.1032-1.6823.9036-3.0894,1.166-4.6818.0167-.1013.1158-.1889.1766-.2829a1.1864,1.1864,0,0,1,.1745.3967c.0178.6859.0082,1.3726.0082,2.059Z" fill="#fbf5e9"/><path d="M865.7115,104.6177c-2.7619,1.6916-5.4315,1.183-6.8708-1.309-1.4332-2.4815-.6433-5.074,2.0078-6.59,1.0676.5542,1.4366,1.664,1.93,2.6145C863.7076,101.124,865.0784,102.6676,865.7115,104.6177Z" fill="#dda9a8"/><path d="M852.5682,106.8745c-2.1938,2.1355-5.6206.9076-6.9325-1.2407-1.3893-2.275-.5534-4.9946,2.059-6.6486C849.6278,101.4243,850.9031,104.27,852.5682,106.8745Z" fill="#ddaba9"/><path d="M848.8044,98.616a4.4953,4.4953,0,0,1,4.9134,2.2592,4.3092,4.3092,0,0,1-.3932,5.205,1.2886,1.2886,0,0,1-1.0066-.7587C851.2255,103.0445,849.4334,101.1342,848.8044,98.616Z" fill="#d89d9b"/><path d="M862.2937,96.3814a4.5706,4.5706,0,0,1,4.1834,7.4436A19.9524,19.9524,0,0,1,862.2937,96.3814Z" fill="#d89c9a"/><path d="M848.8044,98.616l4.52,7.4644-.7561.7939c-.89-.1346-1.1452-.9336-1.4528-1.5557-1.0648-2.1537-2.6948-4.0008-3.4208-6.3334Z" fill="#fbf8f8"/><path d="M862.2937,96.3814c1.3534,2.5044,3.0389,4.8221,4.1833,7.4438l-.7653.7924c-2.0914-2.3433-3.3117-5.2229-4.8633-7.8986A1.9994,1.9994,0,0,1,862.2937,96.3814Z" fill="#fbf7f7"/><path d="M915.3561,163.4953c.0007-.6836.01-1.3674-.0021-2.0508-.0126-.6938.1595-1.2522.9683-1.3164.7426-.059,1.1242.4068,1.3759,1.0288.5055,1.2492-.5061,4.2958-1.6639,5.0836-.4616.314-.6673.21-.6757-.3216C915.3459,165.1113,915.3553,164.3032,915.3561,163.4953Z" fill="#e7d5b8"/><path d="M792.5458,168.7212c1.6027-3.0258,6.1832-4.2344,8.746-2.3014a7.6059,7.6059,0,0,1,.6475.6149,5.893,5.893,0,0,0-.7481.4076c-1.047.7776-2.62.0784-3.5165,1.2614Q795.11,168.7118,792.5458,168.7212Z" fill="#f2dbbd"/><path d="M891.1723,220.2334q6.8195-.0235,13.6391-.0473c4.0163.1236,4.0163.1236,4.0162,4.1623,0,.4951-.0319.9927.0064,1.4848.09,1.1588.0186,2.14-1.5752,1.9408-.47-.0586-.5838.3618-.71.7109-.6144-1.1511-1.6855-.6286-2.592-.7086a2.5,2.5,0,0,1-1.9163.5634c-3.05.01-6.1.0793-9.1485-.0312-.9491-.0126-1.8988.0756-2.8484.0018-2.1229.0929-4.2465.0383-6.37.03a2.8067,2.8067,0,0,1-2.1189-.5411l-2.63-.0286a3.194,3.194,0,0,1-2.1087.59c-3.9115.017-7.8232.029-11.7346-.0084a2.557,2.557,0,0,1-1.9181-.5466l-2.4642.0114c-2.151.9773-4.3944.5566-6.6046.3762-.97-.0792-1.2521-.92-1.3208-1.7831a34.4756,34.4756,0,0,1-.0343-4.2908c.0868-1.9243.5389-2.3975,2.5161-2.4447a77.0027,77.0027,0,0,1,10.7854.2871,22.2456,22.2456,0,0,0,4.9949.2666Q881.1041,220.2383,891.1723,220.2334Z" fill="#bb8d53"/><path d="M866.041,219.9618c-3.139.5984-6.3067.16-9.46.2409-3.29.0845-3.292.0188-3.2921,3.2257,0,4.3127,0,4.3078,4.2407,4.3162,1.057.002,2.1139.0468,3.17.0723-.4562,6.101-1.1689,12.1718-2.0993,18.2182-1.2532,8.145-3.1237,16.162-5.0088,24.1756-.061.2592-.3821.4573-.5819.684q-1.9278-26.5113-3.8507-53.0229c-.1809-2.5052.0936-2.7777,2.5139-2.102C856.478,217.1113,861.2534,218.5583,866.041,219.9618Z" fill="#c0ecf2"/><path d="M860.4543,176.31a64.6,64.6,0,0,1,2.6835,16.1459l-1.21-.0514c-1.3277-.2445-1.7106-1.2419-1.7989-2.3837a83.1281,83.1281,0,0,0-2.1045-12.2844C857.4361,175.1874,859.6255,176.7751,860.4543,176.31Z" fill="#fdfdfc"/><path d="M823.5837,276.795q.0076,1.641.0152,3.2819A3.3281,3.3281,0,0,1,823.5837,276.795Z" fill="#39352f"/><path d="M863.1634,227.8057q7.88-.0177,15.7608-.0352c.5638,5.2479.96,10.5107,1.7413,15.7388q1.4739,9.8645,3.66,19.5862a13.6511,13.6511,0,0,1,.1749,1.4741c-.9947,2.5579-1.1278,5.359-2.2257,7.8879a4.7888,4.7888,0,0,1-2.38.359c-4.6889.0034-9.3779.0238-14.0669.0116-3.4309-.009-6.8386.6192-10.2775.3544.9662-4.1775,1.9857-8.3436,2.8877-12.5348a209.3793,209.3793,0,0,0,4.3048-27.4436Q862.9573,230.5053,863.1634,227.8057Z" fill="#c0ecf2"/><path d="M892.69,227.7722l11.2671.004a230.3671,230.3671,0,0,0,6.3059,39.29c.2216.9046.3544,1.831.5285,2.7472a158.6682,158.6682,0,0,1-19.6147,2.2875,12.1654,12.1654,0,0,0-1.8317.3419q-1.1366-4.5278-2.2731-9.0552c-.061-2.7768.8373-5.3987,1.3751-8.0694,1.6409-8.147,2.6581-16.3766,3.5113-24.6316a19.1529,19.1529,0,0,0,.4249-2.3918A2.2944,2.2944,0,0,1,892.69,227.7722Z" fill="#c0ecf2"/><path d="M881.5549,227.7992l8.5645-.027a2.8066,2.8066,0,0,1,.4775,2.3069,230.3789,230.3789,0,0,1-3.5687,24.81c-.1846.9-.2135,1.8869-1.066,2.5125-1.1042-2.21-1.1372-4.672-1.5834-7.026A185.8933,185.8933,0,0,1,881.5549,227.7992Z" fill="#c0ecf2"/><path d="M885.9622,257.4017a207.1517,207.1517,0,0,0,4.1572-29.63h2.57l-.023.3991c-.2711.7148.0455,1.4862-.2119,2.2023a222.7987,222.7987,0,0,1-4.6959,30.904,20.4184,20.4184,0,0,1-.6873,2.11A25.3875,25.3875,0,0,1,885.9622,257.4017Z" fill="#5c5348"/><path d="M892.4547,230.3735a3.3114,3.3114,0,0,1,.212-2.2031A3.3114,3.3114,0,0,1,892.4547,230.3735Z" fill="#bb8d53"/><path d="M898.8963,176.0063l-.9006,19.1916-34.8579-2.7417s-.5171-12.7529-2.6835-16.1459Z" fill="#d6a87e"/><line x1="823.6534" y1="163.4012" x2="821.9811" y2="176.2391" fill="none"/><line x1="824.7249" y1="155.1497" x2="824.089" y2="160.0265" fill="none"/><line x1="806.0908" y1="160.0265" x2="812.1892" y2="169.9131" fill="none"/><rect x="794.1604" y="152.6131" width="29.493" height="10.5715" rx="4.2119" fill="#f3f2f1"/><polygon points="593.1 350 376.69 350 367.45 307.25 457.92 225.22 574.19 262.55 593.1 350" fill="#0bc0ff"/><path d="M111.17,237.28a36.0029,36.0029,0,0,1-36,36H0v-72H75.17A35.9965,35.9965,0,0,1,111.17,237.28Z" fill="#0bc0ff"/><path d="M1200,246.18v25.89a338.1373,338.1373,0,0,1-40.83,2.31c-42.66,0-77.24-6.83-77.24-15.25,0-8.43,34.58-15.26,77.24-15.26A338.1373,338.1373,0,0,1,1200,246.18Z" fill="#0bc0ff"/><path d="M733.5,0c-5.3,12.06-37.75,21.34-76.99,21.34S584.82,12.06,579.52,0Z" fill="#0bc0ff"/></svg>