<svg id="Layer_1" data-name="Layer 1" xmlns="http://www.w3.org/2000/svg" width="732.92" height="199.0961" viewBox="0 0 732.92 199.0961"><title>logo-white</title><path d="M861.1176,570.1548l9.0906-14.5151,34.1555-54.4692v-.0747a60.6232,60.6232,0,1,0-121.2464,0v.0747L820.49,557.1362l6.9957,10.4747-46.5008,70.1066h33.9308l29.1052-44.4433,27.8706,44.4433h34.5669ZM844.8068,544.716l-12.7195-20.5382L817.834,501.1705v-.0747a25.9065,25.9065,0,1,1,51.813,0v.0747L857.04,523.28Z" transform="translate(-173.54 -440.4539)" fill="#fff"/><path id="Xface" d="M906.46,637.72H871.87l-27.88-44.43-29.07,44.43H780.99l46.47-70.08L783.09,501.2a62.3565,62.3565,0,0,1,53.02,29.51l8.68,14.01,7.63-13.36a59.7839,59.7839,0,0,1,51.93-30.16l-43.23,68.97Z" transform="translate(-173.54 -440.4539)" fill="#444"/><circle cx="670.2005" cy="58.773" r="7.8541" fill="#fff"/><path d="M291.03,486.34a47.77,47.77,0,0,0-19.13-19.07q-12.315-6.765-28.52-6.77H173.54V637.72h29.13V568.98h40.71q16.215,0,28.52-6.71a47.3529,47.3529,0,0,0,19.13-18.95q6.825-12.24,6.83-28.46Q297.86,498.66,291.03,486.34Zm-26.14,42.29a21.9167,21.9167,0,0,1-8.29,9.21,23.3266,23.3266,0,0,1-12.37,3.23H202.67V488.41h41.56a23.2244,23.2244,0,0,1,12.43,3.3,21.8268,21.8268,0,0,1,8.29,9.26,31.21,31.21,0,0,1,2.93,13.89A30.37,30.37,0,0,1,264.89,528.63Z" transform="translate(-173.54 -440.4539)" fill="#fff"/><path d="M355.6308,600.5443q0,4.6339,2.3158,7.13a8.5289,8.5289,0,0,0,6.5815,2.4986h8.6535v27.9106H357.3372q-14.6257,0-22.7308-8.7754t-8.105-24.7417V460.5036h29.1294Z" transform="translate(-173.54 -440.4539)" fill="#fff"/><path d="M468.13,603.47v23.1a20.93,20.93,0,0,0,2.56-5.06Zm0,0v23.1a20.93,20.93,0,0,0,2.56-5.06Z" transform="translate(-173.54 -440.4539)" fill="#fff"/><path d="M495.06,556.42v81.3H468.13V626.57a20.93,20.93,0,0,0,2.56-5.06l-2.56-18.04V585.55H435.46q-8.655,0-12.98,3.66-4.32,3.66-4.32,11.21c0,5.29,1.86,9.2,5.6,11.76s9.39,3.84,16.94,3.84q13.905,0,20.66-3.04,6.765-3.045,6.77-9.51v23.1a21.8909,21.8909,0,0,1-4.7,4.93,35.5455,35.5455,0,0,1-12.49,6.04,60.0733,60.0733,0,0,1-15.96,2.01q-21.825,0-32.67-9.69t-10.85-29.44q0-18.765,10.97-28.15,10.98-9.39,32.91-9.39h32.79v-5.36q0-10.605-6.28-16.45-6.27-5.85-17.73-5.85a46.09,46.09,0,0,0-14.39,2.31,44.67,44.67,0,0,0-12.67,6.46l-19.38-16.33a49.213,49.213,0,0,1,19.5-13.47,71.7294,71.7294,0,0,1,26.81-4.81q16.095,0,27.55,5.54a39.3215,39.3215,0,0,1,17.49,16.09Q495.06,541.555,495.06,556.42Z" transform="translate(-173.54 -440.4539)" fill="#fff"/><path d="M565.0215,639.5461s-4.1846-2.2125-12.5537-6.6425a44.5354,44.5354,0,0,1-19.1352-19.379q-6.5815-12.7339-6.5816-30.7748V565.5646q0-17.7945,6.5816-30.4092a44.3325,44.3325,0,0,1,19.1352-19.1961q12.5536-6.5815,30.2264-6.5816a74.1231,74.1231,0,0,1,19.0743,2.3767,57.4815,57.4815,0,0,1,16.0882,6.8862A43.3178,43.3178,0,0,1,629.74,529.61l-19.7446,18.5258a34.299,34.299,0,0,0-11.7005-8.0441,35.975,35.975,0,0,0-14.0163-2.8033q-13.5286,0-20.9634,7.3738-7.4348,7.3764-7.4347,20.9025V582.75q0,13.8943,7.3737,21.39t21.0244,7.4956a33.921,33.921,0,0,0,25.7168-11.7005L629.74,619.68a45.0778,45.0778,0,0,1-12.0052,10.7864,57.1392,57.1392,0,0,1-16.0882,6.7643,75.5377,75.5377,0,0,1-18.9524,2.3158Z" transform="translate(-173.54 -440.4539)" fill="#fff"/><path d="M756.86,578q0-21.705-6.03-37.06-6.03-15.345-17.55-23.46-11.52-8.1-27.73-8.1-17.19,0-29.43,6.94a45.0955,45.0955,0,0,0-18.65,20.24q-6.405,13.275-6.4,32.05v14.26q0,18.045,6.7,30.78a44.684,44.684,0,0,0,19.38,19.31q12.675,6.585,12.68,6.59h17.91a63.2086,63.2086,0,0,0,24.2-4.94,70.7083,70.7083,0,0,0,21.63-13.96l-19.01-17.79a43.024,43.024,0,0,1-12.62,7.62,38.6109,38.6109,0,0,1-14.2,2.74q-14.13,0-21.93-7.74-7.005-6.93-7.72-19.2h78.77Zm-78.81-13.04q.51-13.44,7.15-21.03,7.185-8.22,20.35-8.23,10.485,0,16.7,7.32,6.21,7.305,7.43,20.59l.12,1.35Z" transform="translate(-173.54 -440.4539)" fill="#fff"/></svg>